<?xml version="1.0" encoding="UTF-8" standalone="no"?>
<!--
************* Copyright (c) 2017 Pareto Softare, LLC DBA Simplemaps.com *******************		
************* Free for Commercial Use, full terms at  http://simplemaps.com/resources/svg-license ************
************* Attribution is appreciated! http://simplemaps.com ***************************
-->

<svg
   enable_background="new 0 0 1000 589"
   height="1000"
   pretty_print="False"
   style="fill:none;stroke:#000000;stroke-linejoin:round"
   version="1.1"
   viewBox="0 0 2000 1000"
   width="2000"
   id="us-map"
   inkscape:version="1.1.1 (3bf5ae0d25, 2021-09-20)"
   sodipodi:docname="us.svg"
   xmlns:inkscape="http://www.inkscape.org/namespaces/inkscape"
   xmlns:sodipodi="http://sodipodi.sourceforge.net/DTD/sodipodi-0.dtd"
   xmlns="http://www.w3.org/2000/svg"
   xmlns:svg="http://www.w3.org/2000/svg"
   xmlns:rdf="http://www.w3.org/1999/02/22-rdf-syntax-ns#"
   xmlns:cc="http://creativecommons.org/ns#"
   xmlns:dc="http://purl.org/dc/elements/1.1/">
  <sodipodi:namedview
     pagecolor="#ffffff"
     bordercolor="#666666"
     borderopacity="1"
     objecttolerance="10"
     gridtolerance="10"
     guidetolerance="10"
     inkscape:pageopacity="0"
     inkscape:pageshadow="2"
     inkscape:window-width="1920"
     inkscape:window-height="1012"
     id="namedview69"
     showgrid="false"
     inkscape:zoom="3.2357206"
     inkscape:cx="1090.7926"
     inkscape:cy="418.76298"
     inkscape:window-x="-8"
     inkscape:window-y="-8"
     inkscape:window-maximized="1"
     inkscape:current-layer="us-map"
     inkscape:pagecheckerboard="0"
     width="2000px"
     inkscape:snap-global="true" />
  <defs
     id="defs4">
    <style
       type="text/css"
       id="style6">path { fill-rule: evenodd; }</style>
  </defs>
  <metadata
     id="metadata8">
    <views
       id="views10">
      <view
         h="589.235294118"
         padding="0"
         w="1000"
         id="view12">
        <proj
           id="laea-usa"
           lat0="45"
           lon0="-100" />
        <bbox
           h="321.97"
           w="589.33"
           x="690.09"
           y="918.69"
           id="bbox15" />
      </view>
    </views>
    <rdf:RDF>
      <cc:Work
         rdf:about="">
        <dc:format>image/svg+xml</dc:format>
        <dc:type
           rdf:resource="http://purl.org/dc/dcmitype/StillImage" />
      </cc:Work>
    </rdf:RDF>
  </metadata>
  <rect
     style="fill:#bbf6ff;fill-opacity:1;stroke:none;stroke-width:4.78935"
     id="Pacific-OCE"
     width="845.1593"
     height="1000.85"
     x="-329.16171"
     y="3.2422233">
    <desc
       id="desc1709">Pacific Ocean</desc>
  </rect>
  <rect
     style="fill:#bbf6ff;fill-opacity:1;stroke:none;stroke-width:1.14939"
     id="Gulf-of-Mexico"
     width="294.58041"
     height="377.62238"
     x="869.13287"
     y="621.50348">
    <desc
       id="desc1633">Gulf of Mexico</desc>
  </rect>
  <rect
     style="fill:#bbf6ff;stroke:none;stroke-width:4.78935;fill-opacity:1"
     id="Atlantic-OCE"
     width="845.1593"
     height="1000.85"
     x="1162.097"
     y="0.23522924">
    <desc
       id="desc1365">Atlantic Ocean</desc>
  </rect>
  <rect
     style="fill:#bbf6ff;fill-opacity:1.0;stroke:none;stroke-width:0.884286"
     id="LK-Michigan"
     width="43.066635"
     height="94.311745"
     x="1010.9688"
     y="320.90402"
     inkscape:label="">
    <desc
       id="desc2361">Lake Michigan</desc>
  </rect>
  <path
     inkscape:connector-curvature="0"
     id="MA"
     data-name="Massachusetts"
     data-id="MA"
     d="m 1274.1087,359.34455 -0.2911,-0.19412 v 0.29119 l 0.2911,-0.0971 z m -2.9119,-2.6207 0.6795,-0.29119 v -0.38825 z m 12.0359,-7.57092 -0.097,-1.35889 -0.1941,-0.7765 z m -42.4166,-9.9975 -0.6795,0.29119 -5.5326,1.65007 -1.9412,0.67944 -2.2325,0.67944 -0.7765,0.29119 v 0.29119 l 0.2912,5.04728 0.2912,4.65903 0.2912,4.27078 0.4853,0.29119 1.7472,-0.48532 7.8621,-2.32951 0.1941,0.48531 13.9771,-5.33847 0.097,0.19413 1.2618,-0.48532 4.4649,-1.74713 4.2708,5.14434 v 0 l 0.5824,-0.48531 0.2911,-1.45595 -0.097,2.32952 v 0 h 0.9707 l 0.2912,1.16475 0.8735,1.65008 v 0 l 4.562,-5.5326 3.7855,1.26182 0.8735,-1.94126 6.2121,-3.30015 -2.6207,-5.14435 0.6794,3.30015 -3.2031,2.42658 -3.5913,0.29119 -7.1827,-7.66799 -3.2031,-4.85315 3.2031,-3.39721 -3.3001,-0.19413 -1.3589,-3.20308 -0.097,-0.19413 -5.5326,6.01791 -12.23,4.07666 -3.9795,1.26182 v 0 z" />
  <path
     inkscape:connector-curvature="0"
     id="MN"
     data-name="Minnesota"
     data-id="MN"
     d="m 876.34407,280.14105 1.94126,6.89148 4.07665,24.84816 1.94126,9.90044 0.58238,8.73568 2.23246,5.24141 0.48531,4.4649 0.38825,1.45595 -0.0971,0.29119 -3.88252,6.40616 2.52364,4.27078 4.85315,34.16622 0.19413,4.4649 4.85315,-0.29119 19.12144,-1.06769 47.75505,-3.97959 4.7561,-0.48532 v -0.48531 l -1.35889,-7.47386 -5.92085,-3.00896 -4.65903,-4.85315 -7.37679,-4.46491 -2.32952,-0.19412 -3.59133,-2.71777 0.97063,-13.39471 -3.39721,-3.10602 1.16476,-5.43554 6.21204,-5.62966 -1.0677,-11.64757 2.23245,-2.52364 v 0 l 7.57093,-7.95918 8.63861,-11.06519 3.30015,-2.32952 5.82379,-2.81483 6.11497,-4.56196 -4.07665,0.7765 -2.42658,-1.8442 -9.31806,1.26182 -1.45594,-1.74713 -8.34743,3.39721 -6.69736,-2.81484 -1.84419,-2.23245 -5.33848,0.38826 -3.59133,-1.8442 1.16476,-1.35889 -4.56197,-1.45594 h -4.07665 l -6.50323,2.81483 -1.26182,-1.94127 -10.28869,-1.45594 -3.49427,-8.73568 -0.38826,-2.62071 -4.4649,-1.26182 0.38825,7.47386 -11.8417,0.87357 -14.65653,0.58238 -0.97063,0.0971 z" />
  <path
     inkscape:connector-curvature="0"
     id="MT"
     data-name="Montana"
     data-id="MT"
     d="m 783.45466,279.26748 -32.12789,-2.13539 -23.39221,-2.23245 -23.29515,-2.71776 -14.46241,-1.94127 -23.10102,-3.59133 -11.55051,-1.94126 -25.81879,-4.95022 -2.71777,-0.58238 -4.17371,19.80087 1.8442,3.59134 1.45595,5.5326 -0.87357,0.7765 1.8442,5.04728 2.52364,2.13539 7.18267,12.03583 0.67944,2.03832 2.91189,-0.19412 -3.39721,15.91835 -1.35888,0.38825 -1.8442,5.33847 9.60925,0.67944 0.77651,4.46491 5.43553,13.29765 0.97063,0.7765 3.78546,7.76505 0.97063,-0.7765 8.05624,-0.0971 10.19163,1.0677 2.52364,-3.30015 3.00896,5.43553 0.58238,0.29119 0.0971,-0.58237 1.35888,-9.51219 33.19559,4.07665 26.49823,2.52364 13.97709,1.16476 24.94522,1.45595 1.26182,0.0971 h 0.29119 l 0.0971,-1.35888 0.29119,-6.69736 0.38825,-8.83274 0.0971,-2.23246 0.19413,-3.88252 1.55301,-30.47782 1.26182,-23.6834 0.0971,-3.88252 -1.8442,-0.0971 z" />
  <path
     inkscape:connector-curvature="0"
     id="ND"
     data-name="North Dakota"
     data-id="ND"
     d="m 874.30574,280.14105 -29.31306,0.58238 -20.48032,-0.0971 -17.56842,-0.38825 -20.57738,-0.77651 -1.0677,-0.0971 -0.0971,3.88253 -1.26182,23.6834 -1.55301,30.47782 -0.19413,3.88252 3.78546,0.19413 42.80484,1.16476 39.50469,-0.29119 16.40367,-0.48532 3.30014,-0.19412 -0.38825,-1.45595 -0.48531,-4.4649 -2.23246,-5.24141 -0.58238,-8.73568 -1.94126,-9.90044 -4.07665,-24.84816 -1.94126,-6.89148 h -2.03833 z" />
  <path
     inkscape:connector-curvature="0"
     id="HI"
     data-name="Hawaii"
     data-id="HI"
     d="m 734.1466,721.29293 -3.00896,-2.23245 -2.6207,0.67944 0.58238,5.43553 -3.59134,4.46491 3.10602,7.08561 0.87357,7.27973 3.59133,2.32951 2.23246,-3.59133 3.97958,-2.91189 4.85316,-1.26183 5.33847,-4.56196 -5.24141,-4.46491 -0.0971,-2.71776 -9.9975,-5.5326 z m -17.66549,-7.86211 -1.45595,-1.26182 -1.35888,1.8442 z m -7.27973,-4.17372 0.38825,-3.59133 -1.8442,-0.29119 z m 6.11497,-5.92085 -1.65007,0.77651 1.16476,3.6884 2.52364,0.19412 0.7765,3.20308 2.71777,1.16476 6.01791,-2.81483 -5.62966,-4.65903 z m -12.42408,-3.97959 -0.87356,2.62071 4.17371,-0.0971 3.88252,0.97063 -2.03832,-3.20309 -5.14435,-0.29119 z m -12.22995,-7.66798 -2.23245,-2.13539 -4.27078,3.30015 2.71777,5.04728 1.94126,-2.03833 5.5326,1.16476 -0.48532,-2.32952 z m -43.48428,-4.27078 0.58238,-1.35888 1.65007,-0.87357 z m 15.43304,-8.83274 -6.79442,2.52364 -0.67944,1.8442 2.71777,1.94126 3.78546,0.97063 2.71776,-5.33847 z m -47.07561,-17.85962 v -0.0971 h -0.19413 z m -51.44346,-12.71527 v 0.19413 h 0.0971 z m -26.98355,-4.4649 0.0971,0.0971 v 0 z m -1.06769,-1.94126 z m -0.87357,-0.97063 h -0.19412 v 0.0971 z m 0.67944,0 h -0.0971 z m -0.0971,-0.0971 v 0 0.0971 z m -30.47782,-25.04228 -0.0971,-0.29119 v 0.0971 l 0.0971,0.19413 z m -66.48824,-21.25682 -0.29119,0.29118 0.19413,0.0971 0.0971,-0.38825 z M 368.41272,545.2204 Z m 2.42658,0.0971 h -0.0971 v 0 z m -0.48531,-0.0971 z m -41.44596,-18.1508 0.29119,-0.0971 v -0.19412 l -0.29119,0.29119 z" />
  <path
     inkscape:connector-curvature="0"
     id="ID"
     data-name="Idaho"
     data-id="ID"
     d="m 626.89185,259.17542 -8.63862,-1.74714 -2.81483,-0.67944 -1.26182,-0.29119 -11.25932,50.66695 0.48532,4.17371 -0.38826,4.36784 0.19413,0.97063 v 0.0971 l 0.0971,1.84419 3.30015,3.59134 -4.75609,11.93876 -10.09457,13.20059 -0.29119,2.42658 2.62071,6.21204 -9.221,38.24287 -0.38825,2.03832 2.71776,0.58238 27.46887,5.43553 10.96813,2.03833 2.81483,0.48532 2.71777,0.48531 13.97709,2.23245 25.04228,3.78546 2.81483,0.38826 0.38825,-3.20309 0.87357,-6.3091 3.30015,-25.23641 1.74714,-12.52114 0.38825,-3.20309 -0.58238,-0.29119 -3.00896,-5.43553 -2.52364,3.30015 -10.19163,-1.0677 -8.05624,0.0971 -0.97063,0.7765 -3.78546,-7.76505 -0.97063,-0.7765 -5.43553,-13.29765 -0.77651,-4.46491 -9.60925,-0.67944 1.8442,-5.33847 1.35888,-0.38825 3.39721,-15.91835 -2.91189,0.19412 -0.67944,-2.03832 -7.18267,-12.03583 -2.52364,-2.13539 -1.8442,-5.04728 0.87357,-0.7765 -1.45595,-5.5326 -1.8442,-3.59134 4.17371,-19.80087 h -0.0971 z" />
  <path
     inkscape:connector-curvature="0"
     id="WA"
     data-name="Washington"
     data-id="WA"
     d="m 509.93079,283.34413 0.0971,-1.65007 -0.19412,0.0971 0.0971,1.55301 z m 20.67445,-8.83274 0.58237,-0.97063 -0.67944,-0.0971 0.0971,1.06769 z m -1.8442,-1.74714 0.58237,-1.94126 -0.58237,-0.19412 z m 7.0856,-2.81483 -0.0971,-1.94126 -1.65007,2.52364 1.74713,-0.58238 z m 0.19413,-4.07665 0.29119,-1.94126 -0.19413,-0.48532 -0.0971,2.42658 z m 0.29119,-9.51218 -0.0971,-1.0677 -0.38826,-0.0971 0.48532,1.16476 z m 3.10602,-6.40617 -0.87357,-0.0971 -1.74713,2.71777 2.6207,-2.62071 z m -2.42658,-2.6207 0.48532,-0.38826 0.0971,-0.29118 -0.58238,0.67944 z m -0.48531,0.29119 -0.29119,-1.94127 -0.87357,1.65008 z m -0.48532,-2.71777 -0.87357,-0.38825 0.67944,0.97063 z m 2.91189,1.65007 v -1.26182 l -0.29119,0.48532 z m 0.87357,-1.26182 -0.38825,-0.29119 h -0.0971 l 0.48531,0.29119 z m -5.5326,-2.13539 -0.48531,-0.38825 -0.19413,-0.0971 0.67944,0.48532 z m 3.59134,-0.38825 -2.6207,0.67944 0.67944,0.19413 z m -2.13539,-0.19413 -0.48531,-0.58237 -0.0971,0.0971 0.58238,0.48531 z m 2.03833,-1.16475 h -0.38826 l 0.48532,0.19412 -0.0971,-0.19412 z m -19.02438,49.79338 3.49428,3.78546 -0.58238,7.27973 0.67944,1.8442 5.24141,2.81483 14.75359,1.35888 0.58238,1.74714 6.98855,0.0971 6.60029,0.87357 10.774,-1.16476 5.33848,0.87357 1.45594,-0.67944 27.27474,6.21204 1.8442,0.38825 -0.19413,-0.97063 0.38826,-4.36784 -0.48532,-4.17371 11.25932,-50.66695 -1.55301,-0.29119 -22.71277,-5.33847 -19.80087,-5.04728 -22.42159,-6.21204 -6.69735,-1.65008 1.55301,8.4445 -1.45595,2.71776 -2.6207,-1.35888 2.52364,11.74464 -2.71777,3.88252 -1.26182,3.59134 v 3.6884 l -5.72672,3.97958 -2.42658,-1.55301 -2.32952,1.16476 4.27078,-5.5326 -1.06769,3.78547 2.42658,-2.62071 1.94126,0.38825 -0.58238,-4.85315 1.26182,0.19412 2.6207,-5.82378 -0.87356,-0.87357 -3.39721,4.36784 -2.23246,0.0971 2.42658,-2.71777 2.71777,-0.67944 -0.97063,-4.95022 -2.71777,-0.67944 -1.35888,-2.32952 -1.65008,0.87357 -8.9298,-3.88252 -7.86211,-6.11498 -2.13539,5.92085 -0.19413,2.52364 1.65007,4.46491 -1.06769,14.4624 -0.77651,2.23245 4.36784,0.38825 -4.36784,3.10602 2.32952,1.16476 -1.8442,6.21204 -0.87357,-4.85315 -1.65007,5.62966 2.23245,2.71776 2.42658,-0.19412 2.91189,1.74713 1.45595,2.81483 h 1.74713 v 0 z" />
  <path
     inkscape:connector-curvature="0"
     id="AZ"
     data-name="Arizona"
     data-id="AZ"
     d="m 689.98288,516.19856 -32.71027,-4.07665 -17.56843,-2.52365 -25.04228,-3.97958 -2.52364,-0.38826 v 0.19413 l -4.27078,18.83025 -2.23245,-0.0971 -3.39721,-3.00895 -4.27078,3.59133 -0.0971,15.43304 -1.55301,3.30014 v 0.29119 0.0971 l -0.19413,2.42657 3.39721,9.12394 3.00896,4.07665 -5.43554,3.20308 -2.13539,3.97959 -3.49427,8.54155 -1.74713,0.38826 -0.0971,7.0856 3.00896,2.23246 -1.55301,4.27077 -3.49427,0.19413 v 0 l -2.03833,3.78546 6.98855,4.36784 13.20058,7.3768 40.76651,21.64507 34.55447,4.27078 h 0.38825 l 2.71777,-28.63362 0.67944,-7.08561 7.27974,-75.12685 0.38825,-3.49427 -2.52364,-0.29119 z" />
  <path
     inkscape:connector-curvature="0"
     id="CA"
     data-name="California"
     data-id="CA"
     d="m 523.81082,570.06859 0.38825,2.13539 v 0.38825 z m -14.26828,-8.34743 0.67944,1.45595 0.38825,-0.0971 -1.06769,-1.35888 z m 16.98604,-0.29119 0.29119,2.52364 1.74714,1.26182 z m -11.74463,-13.78296 -1.0677,-0.29119 0.87357,0.38825 0.19413,-0.0971 z m -10.77401,-2.9119 -2.6207,1.55301 0.67944,0.67945 z m -5.04728,-1.8442 -0.19413,0.77651 0.87357,0.19413 z m 8.54155,1.94127 4.27078,2.42658 0.77651,-0.67945 z m -33.09852,-85.51261 -0.0971,0.0971 z m 10.38575,0.48531 -0.0971,-0.29119 v 0.38826 l 0.0971,-0.0971 z m 56.00542,-73.6709 -3.78546,-0.97064 -41.54301,-11.45344 -15.43304,-4.65903 v 0.38825 l -0.87357,9.60925 -4.07665,11.35638 -6.79442,8.44449 -0.19412,4.27078 3.30014,5.92085 1.65008,7.76505 -2.32952,6.3091 0.38825,6.30911 -1.16475,2.6207 3.97958,8.63862 2.52364,3.30015 -0.19412,9.41512 6.01791,5.72672 3.49427,-5.82378 3.78547,3.00895 1.45594,-1.35888 -5.24141,0.97063 -0.0971,4.95022 1.0677,6.21204 -2.9119,-2.81483 -1.65007,-3.78546 -0.48532,5.2414 1.35889,10.38576 5.43553,6.69735 -3.59133,4.65903 0.58237,5.92085 3.88253,6.01792 6.79442,18.63612 2.13539,1.16475 -0.67945,12.9094 1.0677,1.55301 14.55947,5.24141 4.4649,4.75609 1.55301,3.10602 4.27078,2.42658 4.65903,0.87357 1.94126,5.33847 3.88252,1.8442 5.82379,6.89148 5.43554,9.02687 -0.38826,8.34743 3.00896,3.97958 39.69882,3.88253 v 0 l 3.49427,-0.19413 1.55301,-4.27077 -3.00896,-2.23246 0.0971,-7.0856 1.74713,-0.38826 3.49427,-8.54155 2.13539,-3.97959 5.43554,-3.20308 -3.00896,-4.07665 -3.39721,-9.12394 0.19413,-2.42657 v -0.0971 l -2.52364,-3.39721 -7.76505,-10.38575 -15.04479,-21.15976 -20.96563,-30.08957 -11.8417,-16.40366 -11.45345,-16.50074 13.20058,-56.00542 0.87357,-3.68839 z" />
  <path
     inkscape:connector-curvature="0"
     id="CO"
     data-name="Colorado"
     data-id="CO"
     d="m 807.42925,461.84321 0.38826,-19.02437 -4.65903,-0.19413 -23.6834,-0.87357 -2.32952,-0.0971 -1.94126,-0.0971 -28.82775,-1.8442 -19.2185,-1.55301 -23.97459,-2.32952 -2.32951,-0.29119 -0.29119,2.52365 -5.24141,50.56988 -1.8442,17.66549 -0.7765,7.66799 -0.19413,2.52364 3.00896,0.29119 48.91981,4.27077 21.54801,1.35889 21.45095,0.97063 3.10602,0.0971 1.94126,0.0971 4.07665,0.0971 1.94127,0.0971 6.11497,0.19413 h 1.55301 v -1.94127 l 1.0677,-51.34639 0.0971,-5.72672 v -1.8442 l 0.0971,-1.26182 z" />
  <path
     inkscape:connector-curvature="0"
     id="NV"
     data-name="Nevada"
     data-id="NV"
     d="m 612.62357,502.1244 10.09457,-62.79983 5.14434,-31.44846 0.58238,-3.10601 -2.81483,-0.48532 -10.96813,-2.03833 -27.46887,-5.43553 -2.71776,-0.58238 -2.71777,-0.58238 -13.6859,-3.00895 -24.55697,-5.82379 -2.71777,-0.67944 -0.87357,3.68839 -13.20058,56.00542 11.45345,16.50074 11.8417,16.40366 20.96563,30.08957 15.04479,21.15976 7.76505,10.38575 2.52364,3.39721 v -0.29119 l 1.55301,-3.30014 0.0971,-15.43304 4.27078,-3.59133 3.39721,3.00895 2.23245,0.0971 4.27078,-18.83025 v -0.19413 l 0.48531,-3.10602 z" />
  <path
     inkscape:connector-curvature="0"
     id="NM"
     data-name="New Mexico"
     data-id="NM"
     d="m 790.24908,531.04921 0.0971,-2.52364 0.0971,-2.52364 0.0971,-2.52364 -3.10602,-0.0971 -21.45095,-0.97063 -21.54801,-1.35889 -48.91981,-4.27077 -3.00896,-0.29119 -0.38825,3.49427 -7.27974,75.12685 -0.67944,7.08561 -2.71777,28.63362 0.38826,0.0971 13.39471,1.26183 1.26182,-6.79442 2.42658,-1.94127 27.17767,2.42658 h 0.19413 l -2.42658,-4.75609 12.32701,0.87357 30.76901,1.74713 19.2185,0.87357 3.30015,-91.0452 0.67944,0.0971 0.0971,-2.62071 z" />
  <path
     inkscape:connector-curvature="0"
     id="OR"
     data-name="Oregon"
     data-id="OR"
     d="m 480.03535,369.05087 15.43304,4.65903 41.54301,11.45344 3.78546,0.97064 2.71777,0.67944 24.55697,5.82379 13.6859,3.00895 2.71777,0.58238 0.38825,-2.03832 9.221,-38.24287 -2.62071,-6.21204 0.29119,-2.42658 10.09457,-13.20059 4.75609,-11.93876 -3.30015,-3.59134 -0.0971,-1.84419 v -0.0971 l -1.8442,-0.38825 -27.27474,-6.21204 -1.45594,0.67944 -5.33848,-0.87357 -10.774,1.16476 -6.60029,-0.87357 -6.98855,-0.0971 -0.58238,-1.74714 -14.75359,-1.35888 -5.24141,-2.81483 -0.67944,-1.8442 0.58238,-7.27973 -3.49428,-3.78546 -0.29118,0.0971 -0.67945,0.48531 -4.85315,-2.52364 -2.9119,0.87357 -1.94126,-0.97063 -2.03832,8.34743 -1.35889,2.32951 -6.01791,14.65653 -1.74714,8.05624 -1.06769,0.0971 -5.62966,13.39471 -3.78546,5.72672 -1.35889,0.97063 -3.49427,6.79442 -0.67944,7.18267 -2.13539,6.40617 1.26182,5.82378 v 0.0971 z m 35.5251,-79.68882 -0.29119,-0.87357 -0.0971,0.67944 0.38825,0.19413 z" />
  <path
     inkscape:connector-curvature="0"
     id="UT"
     data-name="Utah"
     data-id="UT"
     d="m 670.182,411.27332 -25.04228,-3.78546 -13.97709,-2.23245 -2.71777,-0.48531 -0.58238,3.10601 -5.14434,31.44846 -10.09457,62.79983 -0.48531,3.10602 2.52364,0.38826 25.04228,3.97958 17.56843,2.52365 32.71027,4.07665 2.52364,0.29119 0.19413,-2.52364 0.7765,-7.66799 1.8442,-17.66549 5.24141,-50.56988 0.29119,-2.52365 -1.94126,-0.19412 -24.7511,-3.00896 -3.78546,-0.48531 2.42658,-18.92731 0.19412,-1.26182 z" />
  <path
     inkscape:connector-curvature="0"
     id="WY"
     data-name="Wyoming"
     data-id="WY"
     d="m 779.18389,398.46099 0.7765,-15.14184 0.97063,-20.38326 0.0971,-2.52364 -1.26182,-0.0971 -24.94522,-1.45595 -13.97709,-1.16476 -26.49823,-2.52364 -33.19559,-4.07665 -1.35888,9.51219 -0.0971,0.58237 -0.38825,3.20309 -1.74714,12.52114 -3.30015,25.23641 -0.87357,6.3091 -0.38825,3.20309 -0.19412,1.26182 -2.42658,18.92731 3.78546,0.48531 24.7511,3.00896 1.94126,0.19412 2.32951,0.29119 23.97459,2.32952 19.2185,1.55301 28.82775,1.8442 1.94126,0.0971 0.0971,-2.52364 0.48532,-10.19163 0.87357,-17.76255 0.38825,-7.57092 0.0971,-2.52364 0.0971,-2.62071 z" />
  <path
     inkscape:connector-curvature="0"
     id="AR"
     data-name="Arkansas"
     data-id="AR"
     d="m 1008.2529,534.34936 -10.48287,1.55301 4.27077,-6.79442 -1.8442,-3.78546 -36.98104,3.59134 -31.25432,2.52364 -4.56197,0.29119 0.58238,2.71776 3.78546,19.60675 0.0971,4.36784 1.0677,26.40117 0.0971,4.36784 0.29119,0.0971 1.45595,1.55301 5.82378,-0.19413 0.58238,8.54155 0.19413,2.42658 3.00896,-0.29119 9.22099,-0.67944 36.5928,-3.39721 h 0.19412 l -0.0971,-2.13539 0.97063,-0.67944 -1.74713,-3.30014 3.6884,-15.5301 -1.45595,-1.74714 5.5326,-6.11498 -0.38826,-5.2414 4.0767,-6.79442 v -0.0971 l -0.1942,-0.19412 3.4943,-3.20309 -0.9706,-3.88252 2.7177,-4.27078 -0.5823,-3.97959 2.9119,-5.62966 v -0.0971 h -0.097 z" />
  <path
     inkscape:connector-curvature="0"
     id="IA"
     data-name="Iowa"
     data-id="IA"
     d="m 979.32804,403.99359 -5.33847,-2.81483 -2.9119,-3.97959 -0.97063,-5.72672 0.77651,-2.62071 -2.81483,-3.39721 v 0 l -4.7561,0.48532 -47.75505,3.97959 -19.12144,1.06769 -4.85315,0.29119 -2.03833,0.0971 1.65008,10.77401 -1.35889,5.14435 2.13539,3.20308 v 0.67944 l 0.67944,0.0971 3.10602,9.12394 3.00896,4.75609 0.19413,5.43554 3.30014,4.56196 -0.58238,1.94126 3.00896,12.22996 v 0.29119 0 l 19.89794,-0.58238 21.25682,-1.8442 20.86857,-2.62071 4.7561,4.17372 0.19412,0.19412 0.87357,-0.38825 -0.67944,-3.78546 3.59133,-2.23245 1.45595,-9.90044 -1.45595,-0.67944 0.87357,-5.04728 4.36784,-0.87357 4.85316,-3.49427 2.13539,-6.11498 0.0971,-3.10602 -3.88252,-3.6884 -1.16476,-2.32951 -3.6884,-2.32952 0.19413,-0.48531 0.0971,-0.48532 z" />
  <path
     inkscape:connector-curvature="0"
     id="KS"
     data-name="Kansas"
     data-id="KS"
     d="m 926.71983,519.01339 -2.42658,-41.0577 -4.36784,-2.52364 -0.38825,-1.94127 -3.49428,-3.10602 3.39721,-4.17371 -1.35888,-2.42658 -2.52364,0.0971 -2.32952,-1.65008 -0.97063,-0.7765 -3.30014,0.19412 -35.81629,1.35889 -16.40367,0.38825 h -32.61321 l -13.10352,-0.19413 -3.6884,-0.0971 v 1.8442 l -0.0971,5.72672 -1.0677,51.34639 v 1.94127 l 4.17372,0.0971 22.51864,0.29119 52.70528,-0.77651 37.56342,-1.74713 3.6884,-0.29119 -0.0971,-2.52364 z" />
  <path
     inkscape:connector-curvature="0"
     id="MO"
     data-name="Missouri"
     data-id="MO"
     d="m 971.46593,448.73969 -4.7561,-4.17372 -20.86857,2.62071 -21.25682,1.8442 -19.89794,0.58238 v 0 l -0.0971,0.58238 2.42657,4.65903 2.23246,1.553 2.6207,4.65903 0.38825,0.38826 0.97063,0.7765 2.32952,1.65008 2.52364,-0.0971 1.35888,2.42658 -3.39721,4.17371 3.49428,3.10602 0.38825,1.94127 4.36784,2.52364 2.42658,41.0577 0.0971,2.52364 0.19413,2.52364 0.0971,2.52364 0.19413,2.6207 0.0971,2.52365 4.56197,-0.29119 31.25432,-2.52364 36.98106,-3.59134 1.8442,3.78546 -4.27079,6.79442 10.48279,-1.55301 h 0.097 v -0.7765 l 0.1942,-4.46491 1.9412,-2.42658 -0.5824,-2.71776 -0.097,-0.0971 -0.097,-0.0971 0.3883,-1.26182 0.5824,0.19413 0.2912,0.7765 -0.097,0.29119 v 0.0971 0.77651 l 0.3882,0.0971 0.7765,-0.97063 v -0.0971 l 0.097,-0.29119 2.5237,-1.55301 0.3882,-0.19413 0.8736,-7.95917 -0.1941,-0.38826 -0.2912,-0.0971 -6.8915,-5.62966 1.0677,-2.03833 -1.9413,-5.53259 -3.4942,-2.71777 -6.60034,-2.9119 -4.17372,-3.3972 0.48532,-6.98855 1.26182,-6.50323 -6.98855,0.38825 -2.13539,-2.23245 -0.97063,-4.4649 -11.06519,-9.31806 -3.10602,-8.63862 0.7765,-4.27078 v 0 l -0.19412,-0.19412 z" />
  <path
     inkscape:connector-curvature="0"
     id="NE"
     data-name="Nebraska"
     data-id="NE"
     d="m 890.12703,410.98213 -3.00895,-3.00895 -10.57988,-3.10602 -3.39721,-0.0971 -5.14435,1.45594 -6.11498,-3.88252 -19.12143,0.19412 -27.85712,-0.29119 -32.90439,-1.06769 -2.9119,-0.0971 -0.0971,2.52364 -0.38825,7.57092 -0.87357,17.76255 -0.48532,10.19163 -0.0971,2.52364 2.32952,0.0971 23.6834,0.87357 4.65903,0.19413 -0.38826,19.02437 -0.0971,1.26182 3.6884,0.0971 13.10352,0.19413 h 32.61321 l 16.40367,-0.38825 35.81629,-1.35889 3.30014,-0.19412 -0.38825,-0.38826 -2.6207,-4.65903 -2.23246,-1.553 -2.42657,-4.65903 0.0971,-0.58238 v -0.29119 l -3.00896,-12.22996 0.58238,-1.94126 -3.30014,-4.56196 -0.19413,-5.43554 -3.00896,-4.75609 -3.10602,-9.12394 -0.67944,-0.0971 -1.8442,-0.19413 z" />
  <path
     inkscape:connector-curvature="0"
     id="OK"
     data-name="Oklahoma"
     data-id="OK"
     d="m 927.30221,529.20501 -0.19413,-2.6207 -0.0971,-2.52364 -0.19413,-2.52364 -3.6884,0.29119 -37.56342,1.74713 -52.70528,0.77651 -22.51864,-0.29119 -4.17372,-0.0971 h -1.55301 l -6.11497,-0.19413 -1.94127,-0.0971 -4.07665,-0.0971 -1.94126,-0.0971 -0.0971,2.52364 -0.0971,2.52364 -0.0971,2.52364 -0.0971,2.62071 h 0.58238 l 23.48927,0.58238 24.84816,0.29119 0.29119,33.19558 1.74714,5.82379 3.88252,3.6884 4.17372,0.19413 0.87356,-1.74714 5.72673,5.24141 7.47386,0.7765 1.35888,1.55301 2.71777,-1.26182 6.79442,3.20309 v 1.84419 l 2.52364,-0.0971 2.6207,-2.23245 4.85316,3.10602 4.56197,1.65007 3.10601,-4.27077 9.90044,4.65902 3.6884,-3.00895 3.00896,-1.16476 2.42658,0.58238 9.12393,-2.6207 4.85316,2.03832 4.36784,2.81483 3.78546,0.67944 h 0.0971 l -0.0971,-4.36784 -1.0677,-26.40117 -0.0971,-4.36784 -3.78546,-19.60675 -0.58238,-2.71776 -0.0971,-2.52365 z" />
  <path
     inkscape:connector-curvature="0"
     id="SD"
     data-name="South Dakota"
     data-id="SD"
     d="m 884.6915,341.87319 -16.40367,0.48532 -39.50469,0.29119 -42.80484,-1.16476 -3.78546,-0.19413 -0.0971,2.23246 -0.38825,8.83274 -0.29119,6.69736 -0.0971,1.35888 h -0.29119 l -0.0971,2.52364 -0.97063,20.38326 -0.7765,15.14184 -0.0971,2.62071 2.9119,0.0971 32.90439,1.06769 27.85712,0.29119 19.12143,-0.19412 6.11498,3.88252 5.14435,-1.45594 3.39721,0.0971 10.57988,3.10602 3.00895,3.00895 1.8442,0.19413 v -0.67944 l -2.13539,-3.20308 1.35889,-5.14435 -1.65008,-10.77401 2.03833,-0.0971 -0.19413,-4.4649 -4.85315,-34.16622 -2.52364,-4.27078 3.88252,-6.40616 0.0971,-0.29119 -3.30014,0.19412 z" />
  <path
     inkscape:connector-curvature="0"
     id="LA"
     data-name="Louisiana"
     data-id="LA"
     d="m 1006.7969,675.5762 -1.2618,0.29119 -0.5824,0.58238 z m 4.0767,0 -0.6795,-0.29119 -0.1941,0.29119 z m 2.3295,-0.77651 h -0.6795 l -0.3882,0.48532 z m -1.1648,-0.67944 -0.1941,-0.29119 -0.097,0.29119 h 0.2912 z m 7.7651,-5.14434 -0.2912,0.19412 h 0.4853 z m 13.5888,-5.72673 0.5824,-0.7765 -0.6795,0.87357 0.097,-0.0971 z m 1.9413,-2.52364 -0.1942,0.0971 v 0.0971 l 0.1942,-0.19413 z m -49.89048,8.54156 1.45594,-1.8442 -3.97959,-1.0677 -1.74713,1.45595 z m 40.28118,-8.44449 -0.3882,-0.38826 -0.097,0.19413 0.4853,0.19413 z m 1.0677,-1.74714 -0.9706,-0.29119 0.2912,0.97063 z m 7.9592,-1.65007 v -0.29119 0.0971 0.19413 z m 1.9412,-1.26182 -0.097,-0.0971 0.097,0.19413 v -0.0971 z m -0.7765,-0.19413 -0.1941,-0.0971 -0.097,0.29119 0.2912,-0.19413 z m -6.7944,-0.29119 0.8736,-0.29119 v -0.29119 z m 0.4853,-0.48532 0.4854,-0.48531 -0.097,-0.0971 -0.3883,0.58237 z m -3.3972,-3.59133 -0.1941,0.19413 h 0.097 l 0.097,-0.19413 z m -35.81627,-54.35535 h -0.19412 l -36.5928,3.39721 -9.22099,0.67944 -3.00896,0.29119 0.0971,2.32952 1.94126,18.73318 3.20309,4.4649 0.0971,2.62071 3.10602,5.43553 2.52364,7.95918 -0.87357,4.4649 -0.67944,11.0652 -1.45594,3.59133 h 0.19412 l 0.29119,2.52364 -1.65007,2.32952 12.03582,-1.35889 9.41513,2.62071 6.69735,0.87357 3.39721,-2.42658 -1.8442,-2.42658 6.21204,-1.94126 -0.19412,2.13539 3.20308,-0.77651 2.6207,4.07665 2.23245,-0.7765 5.82379,3.97959 -3.59133,1.26182 8.25032,2.42657 h 3.1061 l 1.8442,-2.23245 3.9796,-2.13539 2.8148,4.07666 1.9412,-3.6884 -0.5823,-5.82379 5.2414,2.03833 0.5824,1.74713 6.212,0.77651 3.106,2.52364 -0.3882,2.03832 4.3678,-4.07665 -1.6501,-2.13539 -7.2797,-1.8442 -2.7178,-1.55301 -0.097,-2.91189 3.009,0.38825 2.3295,-4.75609 -3.009,-4.17371 -1.65,3.97958 -3.7855,-0.67944 2.6207,-4.27078 -1.7471,-0.48531 -4.2708,3.00896 -6.115,0.38825 -1.7471,-1.35889 2.8148,-4.95021 3.3002,-0.0971 5.6296,1.8442 4.0767,0.38825 v 0 l -2.2325,-2.81483 -4.2708,-8.34742 1.1648,-4.65903 -33.48678,3.68839 1.26182,-1.26182 -1.35888,-3.49427 2.03832,-3.00896 1.16476,-7.57092 7.3768,-12.6182 -3.59134,-4.36784 0.19413,-3.20309 -2.23246,-5.24141 v -0.67944 z" />
  <path
     inkscape:connector-curvature="0"
     id="TX"
     data-name="Texas"
     data-id="TX"
     d="m 891.7771,743.22919 -4.65902,-17.56842 v 3.30015 z m -1.06769,-30.86607 -3.30015,6.21204 -0.38825,2.03833 z m 2.6207,-4.56196 3.10602,-4.07666 -2.23245,1.35889 z m 10.96814,-9.90044 -7.27974,3.78546 2.03833,-0.38825 z m 0.97063,-1.35889 2.03832,-1.65007 -0.7765,0.19413 z m -115.11686,-162.87191 -0.67944,-0.0971 -3.30015,91.0452 -19.2185,-0.87357 -30.76901,-1.74713 -12.32701,-0.87357 2.42658,4.75609 0.0971,0.0971 10.48282,10.48281 6.01791,7.08561 7.95917,5.92085 5.62967,10.28869 2.13538,10.77401 4.56197,3.00895 3.59134,3.97959 5.14434,1.8442 7.47386,4.75609 3.39721,1.26183 4.65903,-4.65903 1.45595,-4.95022 2.42658,-4.7561 7.57092,-3.00895 2.91189,1.45594 8.44449,0.67945 7.66799,4.75609 5.24141,0.97063 -1.45595,2.71777 3.00896,1.94126 2.81483,3.39721 0.58238,3.59133 1.8442,2.42658 4.27077,10.28869 4.27078,3.59134 3.30015,5.43553 4.17371,4.27078 1.8442,0.58238 1.55301,11.06519 4.56197,2.52365 0.19412,3.49427 1.16476,-0.29119 7.95918,9.70631 3.97959,0.87357 5.04728,3.00896 h 7.76505 l 5.62966,3.10601 6.69735,-1.45594 -3.00895,-2.81483 -2.71777,-8.1533 -1.06769,-7.08561 -1.55301,-2.32952 0.67944,-4.75609 -2.03833,-0.19413 -2.71777,-4.4649 3.10602,3.30015 3.59134,-1.26182 1.94126,-5.14435 -3.88252,-5.24141 5.82378,0.67944 2.71777,-4.17371 -0.38825,-1.45595 2.42658,-3.20308 -0.58238,2.81483 2.71777,-2.13539 -1.0677,-3.78546 3.49427,1.8442 4.46491,-2.52364 -4.36784,-4.56197 2.71776,1.0677 5.04729,0.29119 6.60029,-1.45595 7.3768,-4.95022 4.4649,-3.6884 0.67944,-2.71777 2.71777,-2.81483 -1.45595,-4.65903 0.29119,-2.91189 4.85316,-2.13539 -0.38826,5.14435 h 2.9119 l -3.20308,2.71776 12.90939,-6.79441 2.13539,-0.0971 1.35888,-6.21204 h 0.38826 l 1.45594,-3.59133 0.67944,-11.0652 0.87357,-4.4649 -2.52364,-7.95918 -3.10602,-5.43553 -0.0971,-2.62071 -3.20309,-4.4649 -1.94126,-18.73318 -0.0971,-2.32952 -0.19413,-2.42658 -0.58238,-8.54155 -5.82378,0.19413 -1.45595,-1.55301 -0.29119,-0.0971 h -0.0971 l -3.78546,-0.67944 -4.36784,-2.81483 -4.85316,-2.03832 -9.12393,2.6207 -2.42658,-0.58238 -3.00896,1.16476 -3.6884,3.00895 -9.90044,-4.65902 -3.10601,4.27077 -4.56197,-1.65007 -4.85316,-3.10602 -2.6207,2.23245 -2.52364,0.0971 v -1.84419 l -6.79442,-3.20309 -2.71777,1.26182 -1.35888,-1.55301 -7.47386,-0.7765 -5.72673,-5.24141 -0.87356,1.74714 -4.17372,-0.19413 -3.88252,-3.6884 -1.74714,-5.82379 -0.29119,-33.19558 -24.84816,-0.29119 -23.48927,-0.58238 h -0.58238 z" />
  <path
     inkscape:connector-curvature="0"
     id="CT"
     data-name="Connecticut"
     data-id="CT"
     d="m 1254.7932,349.63824 -13.9771,5.33847 -0.1941,-0.48531 -7.8621,2.32951 -1.7472,0.48532 0.1941,0.97063 3.6884,14.26828 1.1648,1.45595 -2.5236,3.10602 1.7471,1.65007 v 0 l 5.6297,-5.43554 3.0089,-4.17371 0.5824,1.16476 14.1712,-6.30911 0.2912,-0.29118 -0.097,-2.32952 -0.5824,-2.03833 -3.0089,-8.44449 -0.3883,-1.06769 -0.097,-0.19413 z" />
  <path
     inkscape:connector-curvature="0"
     id="NH"
     data-name="New Hampshire"
     data-id="NH"
     d="m 1241.6897,282.27644 -1.2619,1.55301 -1.4559,-0.29119 -0.7765,6.40617 v 0.0971 l 2.3295,8.73568 -0.1941,1.74713 -4.1737,5.5326 1.0677,5.04728 v 6.30911 l -0.7766,5.82378 4.3679,15.91836 v 0 0 l 3.9796,-1.26182 12.2299,-4.07666 5.5326,-6.01791 v 0 -1.55301 l 0.2912,-2.52364 -0.6794,0.29119 -0.097,-0.58238 -6.115,-7.47386 -0.1941,-0.67944 -14.0742,-33.00146 v 0 z" />
  <path
     inkscape:connector-curvature="0"
     id="RI"
     data-name="Rhode Island"
     data-id="RI"
     d="m 1264.3054,358.37392 -0.097,-2.03832 -0.2912,0.7765 z m 1.9412,-1.55301 -1.2618,-2.42657 -0.097,2.52364 1.3589,-0.0971 z m -0.5824,-3.00895 0.6795,1.74713 0.8736,1.55301 0.5823,-1.16475 -0.8735,-1.65008 -0.2912,-1.16475 h -0.9707 z m -10.774,-3.97959 0.3883,1.06769 3.009,8.44449 0.5823,2.03833 0.097,2.32952 0.1941,-0.29119 4.6591,-3.6884 -0.8736,-6.60029 1.9413,-0.38826 v 0 l -4.2708,-5.14434 -4.4649,1.74713 z" />
  <path
     inkscape:connector-curvature="0"
     id="VT"
     data-name="Vermont"
     data-id="VT"
     d="m 1240.8161,339.15543 -4.3679,-15.91836 0.7766,-5.82378 v -6.30911 l -1.0677,-5.04728 4.1737,-5.53259 0.1941,-1.74714 -2.3295,-8.73568 -1.2618,0.48532 -5.3385,1.94126 -5.2414,2.03832 -12.0358,4.36784 -0.6795,0.19413 4.3679,10.19163 1.4559,9.60924 5.1443,8.05624 4.8532,15.91835 0.1941,-0.0971 0.7765,-0.29119 2.2325,-0.67944 1.9412,-0.67944 5.5326,-1.65007 0.6795,-0.29119 v 0 z" />
  <path
     inkscape:connector-curvature="0"
     id="AL"
     data-name="Alabama"
     data-id="AL"
     d="m 1036.11,551.14128 0.3882,0.77651 1.3589,0.87356 0.5824,39.79588 0.1941,21.8392 4.9502,29.89545 0.3883,-0.0971 4.3678,0.87357 1.1648,-8.63862 1.9412,4.85316 3.3002,3.00896 6.3091,-3.6884 -0.6795,-0.58238 0.1942,0.0971 -4.3679,-9.9975 41.9313,-6.79442 2.8148,-0.48531 v -0.0971 l -2.6207,-4.95022 -0.1941,-7.0856 -2.1354,-3.88253 1.0677,-7.57092 1.7471,-1.94126 -7.1826,-12.81234 -13.0065,-39.60175 -0.097,-0.19413 -2.9119,0.48532 -15.5301,2.52364 -7.765,0.97063 -16.3066,2.23245 0.097,0.19413 z" />
  <path
     inkscape:connector-curvature="0"
     id="FL"
     data-name="Florida"
     data-id="FL"
     d="m 1172.4837,741.57912 h -0.1942 l 0.097,0.0971 0.097,-0.0971 z m -0.8736,-0.0971 v 0.0971 h 0.097 z m 0.1941,-0.0971 v -0.0971 z m -13.2006,1.45594 v 0 0.0971 z m -0.1941,0.0971 v -0.0971 z m 0.097,-0.0971 z m -0.9706,0.0971 h -0.097 v 0.0971 z m 27.5659,-6.11498 h -0.097 l 0.097,0.19412 z m 2.6207,-0.67944 v -0.19413 l -0.1941,0.29119 0.1941,-0.0971 z m -0.9706,-0.19413 -0.3883,-0.38825 -0.097,0.0971 0.4853,0.29119 z m -0.2912,0.77651 -1.1648,-1.45595 0.6795,1.26182 z m 9.221,-5.72673 v 0.38825 l 0.1941,-0.19412 z m 1.3589,-0.97063 0.2912,-0.48532 -0.3883,0.38826 0.097,0.0971 z m 0.2912,-0.97063 h -0.097 v 0.0971 z m -1.7472,-0.29119 -0.097,-0.0971 z m 0.8736,-1.45595 -0.097,-0.0971 v 0.19413 l 0.097,-0.0971 z m -2.6207,-0.0971 -0.097,-0.0971 z m 3.3001,-2.23245 -0.1941,0.0971 0.2912,0.0971 -0.097,-0.19412 z m 0.3883,0 -0.1941,-0.19413 0.097,0.29119 0.097,-0.0971 z m -0.6795,-0.19413 -0.097,-0.0971 v 0.19412 l 0.097,-0.0971 z m 3.5914,-0.67944 v -0.0971 l -0.1942,0.38825 0.1942,-0.29119 z m -4.0767,0.38825 h -0.1941 l 0.1941,0.0971 z m 2.0383,-1.16476 h -0.2911 l -0.097,0.0971 0.3882,-0.0971 z m 0.7766,-0.48531 v 0 h -0.097 z m -8.1534,0.38825 v -0.19412 l -0.097,0.19412 z m 0.8736,-0.29119 h -0.2912 l 0.2912,0.58238 z m -2.3295,0.0971 v -0.58238 l -0.4853,0.0971 0.4853,0.48532 z m -1.3589,-0.97064 0.4853,0.48532 v -0.19413 z m 14.2683,0.58238 -1.7471,0.77651 0.5823,0.0971 1.1648,-0.87357 z m -13.5888,-0.87356 h -0.5824 v 0.19412 z m 15.3359,-4.85316 0.097,-0.48532 0.097,-1.26182 -0.1941,1.74714 z m 0.097,-5.43554 -0.3882,-0.97063 -0.1941,0.38826 z m -22.4215,2.42658 -0.1942,0.29119 0.4853,0.0971 -0.2911,-0.38825 z m -1.8442,-0.87357 -0.8736,0.29119 0.6794,0.0971 0.1942,-0.38826 z m -1.9413,0.19413 v -0.29119 l -0.097,0.0971 0.097,0.19413 z m -2.0383,-0.0971 -0.5824,0.38825 0.7765,0.38825 z m 2.7177,0.0971 -0.097,-0.29119 -0.4853,-0.0971 0.5824,0.38825 z m -12.7152,-9.51219 -0.5824,0.29119 1.1647,0.38826 z m -2.3295,-3.10602 -0.7766,-1.16475 0.2912,0.87357 z m 3.0089,1.94127 -1.3589,-3.10602 -0.9706,-0.29119 z m -3.8825,-3.88253 -0.2912,-0.7765 -0.1941,-0.48532 z m -8.0563,-10.774 -1.7471,-1.26182 0.6795,0.67944 z m 43.6784,-6.50323 -7.0856,-11.8417 h -0.3882 z m -49.0168,-18.92731 -0.2912,-0.0971 0.2912,0.19412 v -0.0971 z m -0.5824,-0.67944 -0.097,0.0971 0.097,0.0971 v -0.19412 z m -0.6794,-0.97063 v -0.0971 l -0.097,0.0971 z m 0.3882,-0.38826 0.2912,0.19413 v -0.19413 z m 0.5824,-0.38825 -0.3883,0.0971 h 0.097 l 0.2912,-0.0971 z m -0.6795,-0.0971 -0.2911,-0.29119 0.097,0.0971 0.1941,0.19413 z m -0.6794,-1.0677 h -0.1941 l 0.2912,0.0971 -0.097,-0.0971 z m 0.6794,-1.16475 h -0.3882 l -0.097,0.0971 0.4853,-0.0971 z m 0.3883,0.19412 -0.4853,-0.48531 0.1941,0.0971 0.2912,0.38825 z m -3.6884,-4.17371 -0.1941,-0.0971 v 0.0971 z m -4.1737,0 -0.2912,-0.38825 0.097,0.48531 0.1941,-0.0971 z m -35.331,-3.20309 2.9119,-2.23245 -3.2031,2.13539 0.2912,0.0971 z m 5.8238,-4.65902 0.2912,-0.29119 -1.1648,0.48531 z m -36.884,-6.50323 -10.5799,3.39721 5.8238,-1.65008 z m 26.3041,-16.50073 -2.8148,0.48531 -41.9313,6.79442 4.3679,9.9975 0.2911,0.0971 -1.0676,3.97959 3.106,-1.35888 3.3972,-3.00896 5.8238,-0.19412 6.6973,-2.42658 4.562,0.67944 -1.0677,1.65007 8.3474,2.81483 7.1827,3.49428 1.6501,3.88252 5.3384,-1.16476 12.6182,-10.28869 4.6591,0.19413 19.0243,14.36534 3.8826,-0.77651 4.0766,5.43554 0.7765,8.63862 -1.2618,5.43553 0.5824,2.71777 3.3972,6.79442 -1.553,-5.33847 4.3678,-0.0971 0.3883,3.88253 -2.3295,6.01791 8.0562,11.0652 3.009,0.0971 -2.5237,-3.39721 3.106,0.38825 1.8442,-1.16475 -0.7765,6.21204 4.1737,3.30014 2.8149,7.57093 3.7854,2.32951 4.8532,1.26182 6.6973,8.54156 3.4943,1.84419 -4.659,0.29119 2.1354,2.42658 7.668,-2.52364 3.7854,-2.13539 3.4943,-12.22995 -1.7471,-19.02437 -0.3883,-1.94127 -9.318,-15.53009 -7.9592,-11.25933 -4.4649,-9.22099 3.7854,3.20308 0.7765,-0.58238 1.6501,8.05624 4.2708,6.11498 -4.1737,-8.1533 0.1941,-3.88253 -12.5211,-15.23891 -3.009,-4.75609 -3.9796,-8.05624 -2.7178,-6.79442 -2.1353,-2.42658 -0.4854,-3.10602 -0.097,-0.0971 -6.6973,-0.38825 -2.6207,2.03832 -1.456,7.47386 -1.3588,-3.49427 -45.8138,5.72672 -3.3002,-5.14434 0.097,-0.0971 z" />
  <path
     inkscape:connector-curvature="0"
     id="GA"
     data-name="Georgia"
     data-id="GA"
     d="m 1163.6509,602.39061 -0.097,-2.9119 -0.6794,2.52364 0.7765,0.38826 z m 1.0677,-4.46491 -0.3882,-2.23245 -0.2912,1.35889 z m -45.4255,-61.14976 -1.2619,0.29119 -3.6884,0.7765 -13.5888,2.81483 -1.2618,0.29119 -1.3589,0.19413 -7.5709,1.45595 -2.0383,0.38825 -8.2504,1.55301 -1.7471,0.19412 0.097,0.19413 13.0064,39.60175 7.1827,12.81234 -1.7472,1.94126 -1.0676,7.57092 2.1353,3.88253 0.1942,7.0856 2.6207,4.95022 v 0.0971 l -0.097,0.0971 3.3001,5.14434 45.8138,-5.72672 1.3589,3.49427 1.4559,-7.47386 2.6207,-2.03832 6.6974,0.38825 v 0 l -0.5824,-10.48282 1.2618,-2.23245 -0.6794,-4.17371 1.3589,-3.97959 2.0383,-2.23245 -1.4559,-1.35889 3.3972,-4.17371 h -0.097 l -5.8238,-5.43554 -7.9592,-11.35638 -4.3678,-2.03833 -18.7332,-15.72422 -4.562,-5.82379 -8.8327,-3.6884 -0.4853,-1.94126 2.7177,-5.33847 v 0 z" />
  <path
     inkscape:connector-curvature="0"
     id="MS"
     data-name="Mississippi"
     data-id="MS"
     d="m 1034.557,649.07797 -0.4854,0.0971 v 0.0971 l 0.4854,-0.19412 z m 9.0268,-1.16476 h -1.3589 l 1.2619,0.0971 z m -11.2593,0.97063 -0.3882,0.38825 0.097,0.0971 0.2911,-0.48532 z m 9.1239,-0.7765 h -3.6884 l 3.4943,0.0971 z m -40.4753,-92.50116 v 0.0971 l -4.07664,6.79442 0.38826,5.2414 -5.5326,6.11498 1.45595,1.74714 -3.6884,15.5301 1.74713,3.30014 -0.97063,0.67944 0.0971,2.13539 v 0.67944 l 2.23246,5.24141 -0.19413,3.20309 3.59134,4.36784 -7.3768,12.6182 -1.16476,7.57092 -2.03832,3.00896 1.35888,3.49427 -1.26182,1.26182 33.48678,-3.68839 -1.1648,4.65903 4.2708,8.34742 2.2325,2.81483 v -0.0971 l 3.5913,-4.07665 7.5709,-1.65007 6.9886,0.7765 1.0677,-1.35888 v -0.0971 l -4.9502,-29.89545 -0.1942,-21.8392 -0.5824,-39.79588 -1.3588,-0.87356 -0.3883,-0.77651 h -0.1941 l -4.8532,0.67944 -8.5415,1.16476 -19.4127,2.42658 -2.1353,0.19412 z" />
  <path
     inkscape:connector-curvature="0"
     id="SC"
     data-name="South Carolina"
     data-id="SC"
     d="m 1119.2931,536.77594 v 0 l -2.7178,5.33847 0.4853,1.94126 8.8328,3.6884 4.5619,5.82379 18.7332,15.72422 4.3678,2.03833 7.9592,11.35638 5.8238,5.43554 v 0 l 0.9706,-4.4649 -1.553,-4.27078 4.1737,3.10602 2.3296,-1.8442 -3.9796,-3.30015 4.8531,-0.29119 7.5709,-6.40616 -0.8735,-1.65008 4.659,-3.59133 -0.4853,-1.74714 3.3972,-2.13539 0.1941,-4.95022 5.3385,-9.90043 3.5913,-4.56197 0.3883,-0.19413 -21.6451,-13.6859 -8.0562,1.55301 -10.9682,-0.38825 -5.4355,-2.81483 -32.2249,10.19163 z" />
  <path
     inkscape:connector-curvature="0"
     id="IL"
     data-name="Illinois"
     data-id="IL"
     d="m 979.23098,404.47891 -0.19413,0.48531 3.6884,2.32952 1.16476,2.32951 3.88252,3.6884 -0.0971,3.10602 -2.13539,6.11498 -4.85316,3.49427 -4.36784,0.87357 -0.87357,5.04728 1.45595,0.67944 -1.45595,9.90044 -3.59133,2.23245 0.67944,3.78546 -0.87357,0.38825 v 0 l -0.7765,4.27078 3.10602,8.63862 11.06519,9.31806 0.97063,4.4649 2.13539,2.23245 6.98855,-0.38825 -1.26182,6.50323 -0.48532,6.98855 4.17372,3.3972 6.60033,2.9119 3.4942,2.71777 1.9413,5.53259 -1.0677,2.03833 6.8915,5.62966 0.2912,0.0971 -0.5824,-0.58238 1.9413,-4.56196 7.4738,2.03832 1.8442,-2.13539 -1.4559,-4.27077 6.1149,-3.59134 -1.65,-2.32951 1.4559,-3.30015 v -0.29119 l -0.3882,-0.0971 0.097,-8.63862 2.1354,-1.55301 3.6883,-8.63862 -0.7765,-3.78546 -2.4265,-4.56196 1.3588,-5.14435 -6.7944,-47.85212 -0.9706,-1.06769 -2.5236,-5.72673 -2.0384,-2.13539 -0.8735,-5.62966 v -0.19412 l -13.1036,1.8442 -7.8621,0.97063 -21.15973,2.42658 v 0 z" />
  <path
     inkscape:connector-curvature="0"
     id="IN"
     data-name="Indiana"
     data-id="IN"
     d="m 1068.1408,406.51723 -14.8507,2.62071 -3.3972,0.67944 -12.0358,1.94126 -2.5236,2.03833 -3.7855,1.74713 -1.4559,-0.0971 -1.7472,-0.87357 -0.5824,-0.58238 6.7945,47.85212 -1.3589,5.14435 2.4266,4.56196 0.7765,3.78546 -3.6884,8.63862 -2.1354,1.55301 -0.097,8.63862 0.3882,0.0971 0.3883,-0.0971 1.4559,-2.71777 h 3.5914 l 4.3678,-1.45595 5.4355,2.03833 0.5824,-2.23245 3.106,-2.32952 4.6591,0.67945 2.5236,-4.95022 6.8915,0.58237 -0.097,-2.81483 6.115,-8.05623 -0.9707,-3.6884 4.2708,-0.0971 5.2414,-4.17371 -1.2618,-4.75609 0.1941,-0.19413 -0.1941,-1.65007 -5.8238,-34.36035 -2.6207,-14.65653 -0.2912,-1.55301 -0.2912,-1.26182 z" />
  <path
     inkscape:connector-curvature="0"
     id="KY"
     data-name="Kentucky"
     data-id="KY"
     d="m 1010.9706,523.47829 -0.2912,-0.7765 -0.5823,-0.19413 -0.3883,1.26182 0.097,0.0971 1.0677,-0.0971 0.097,-0.29119 z m 66.3912,-63.47928 -0.1941,0.19413 1.2618,4.75609 -5.2414,4.17371 -4.2708,0.0971 0.9706,3.6884 -6.1149,8.05623 0.097,2.81483 -6.8915,-0.58237 -2.5237,4.95022 -4.659,-0.67945 -3.106,2.32952 -0.5824,2.23245 -5.4355,-2.03833 -4.3679,1.45595 h -3.5913 l -1.456,2.71777 -0.3882,0.0971 v 0.29119 l -1.456,3.30015 1.6501,2.32951 -6.115,3.59134 1.456,4.27077 -1.8442,2.13539 -7.4739,-2.03832 -1.9412,4.56196 0.5823,0.58238 0.1942,0.38826 -0.8736,7.95917 -0.3883,0.19413 -2.5236,1.55301 -0.097,0.29119 2.8148,-0.38826 19.6068,-2.6207 -0.9706,-3.88252 3.3001,-0.0971 39.5047,-5.24141 27.76,-4.65903 0.3883,-0.29119 0.6794,-0.7765 7.2798,-3.88252 5.6296,-7.3768 0.7765,-2.52364 3.6884,-2.9119 4.6591,-5.92085 0.6794,-0.97063 -0.2912,-0.0971 h -2.4266 l -3.106,-1.74714 -5.5326,-6.69735 -1.9412,-6.79442 v -0.19413 l -0.1942,-0.19412 -4.0766,-2.32952 -1.8442,-3.10602 -3.6884,3.59134 -2.3295,0.58238 -2.9119,-1.16476 -2.5237,1.94126 -5.2414,-2.32951 -1.3589,0.58237 -4.9502,-4.27077 -2.5236,-1.26182 -4.7561,0.58238 z" />
  <path
     inkscape:connector-curvature="0"
     id="NC"
     data-name="North Carolina"
     data-id="NC"
     d="m 1208.0088,538.52307 -1.0677,1.0677 0.1941,0.19413 z m 0.7765,-5.62966 -0.4854,0.77651 0.1942,0.7765 z m 5.8237,-9.02687 -1.4559,0.97063 -0.7765,1.16476 z m 12.5212,-6.11497 -0.5824,-0.38826 -1.2618,-0.0971 1.8442,0.48532 z m -2.6207,-0.58238 h -0.8736 l -1.4559,0.7765 z m 3.0089,1.06769 2.8149,-6.98854 -1.9413,2.91189 z m 4.1738,-9.22099 1.2618,-1.8442 h -0.6795 z m 8.1533,-7.57093 -2.1354,-10.774 1.8442,5.62966 z m -11.8417,-24.55697 -0.1942,0.0971 -0.2912,0.0971 v 0 h 0.097 l 5.3385,9.02687 4.1737,4.17371 -9.1239,-13.39471 v 0 z m -1.7472,0.58238 -0.7765,0.19413 v 0 l 0.1941,0.0971 h 1.6501 l -0.1941,-0.58238 v 0 l -0.2912,0.0971 h -0.2912 v 0 0.19412 l -0.1941,0.0971 -0.097,-0.0971 v 0 z m -89.7834,22.13039 -0.4853,1.45595 0.097,4.17371 -1.0677,-0.0971 -2.5236,5.14435 -2.8149,0.29119 -5.2414,5.14434 -2.3295,-0.87357 -3.0089,4.46491 -7.9592,7.18267 -3.8825,0.97063 -4.0767,3.78546 -0.1941,2.52364 -3.5913,1.94126 0.097,4.27078 v 0.97063 l 1.2618,-0.29119 13.5888,-2.81483 3.6884,-0.7765 1.2618,-0.29119 h 0.2912 l 32.225,-10.19163 5.4355,2.81483 10.9681,0.38825 8.0563,-1.55301 21.6451,13.6859 0.3882,-0.29119 9.9975,-4.07665 0.097,-5.33847 3.5914,-6.50323 3.8825,-3.6884 8.0562,-5.33847 1.0677,-1.94126 2.1354,0.97063 0.9706,-6.40616 -1.1647,2.23245 -4.0767,1.35888 -3.8825,0.0971 4.7561,-3.49427 -1.456,-1.55301 1.6501,-3.49427 -9.1239,-1.45595 -0.3883,-0.48531 7.7651,-1.45595 2.5236,1.26182 3.2031,-0.29119 2.6207,-1.94126 1.9413,-3.78546 1.7471,-0.48532 -0.2912,-5.33847 -2.2324,-2.13539 -2.2325,2.03833 0.4853,5.14434 -1.65,-6.3091 -1.2619,-0.29119 -9.6092,3.97959 4.2708,-4.17372 0.1941,-1.65007 4.4649,-1.06769 1.2618,-3.30015 3.009,1.74714 -3.2031,-4.7561 -2.2325,-1.94126 v 0 l -38.8252,11.0652 -24.7511,6.3091 -25.0423,4.65903 -0.097,-0.19413 z" />
  <path
     inkscape:connector-curvature="0"
     id="OH"
     data-name="Ohio"
     data-id="OH"
     d="m 1135.9879,412.9234 -2.4266,-10.48282 -0.4853,-2.13539 -2.7177,-11.93876 -3.4943,2.23245 -7.4739,5.72672 -4.8531,5.92085 -3.7855,0.58238 -6.9885,3.97959 -3.8826,-2.32951 -11.7446,-1.35889 v 0 l -6.212,1.55301 -6.115,1.45595 -6.4062,1.35888 -0.9706,0.29119 0.2912,1.55301 2.6207,14.65653 5.8238,34.36035 0.1941,1.65007 0.7765,-0.7765 4.7561,-0.58238 2.5236,1.26182 4.9503,4.27077 1.3588,-0.58237 5.2414,2.32951 2.5237,-1.94126 2.9119,1.16476 2.3295,-0.58238 3.6884,-3.59134 1.8442,3.10602 4.0766,2.32952 0.1942,0.19412 v 0 l 4.1737,-2.03832 1.4559,-3.20309 -1.1647,-3.30014 3.3001,-5.04728 2.4266,-0.38826 -0.2912,-4.27077 3.9796,-5.43554 0.6794,0.77651 3.5914,-2.71777 3.106,-4.65903 0.4853,-21.25682 0.1941,-0.0971 -0.4853,-2.03832 z" />
  <path
     inkscape:connector-curvature="0"
     id="TN"
     data-name="Tennessee"
     data-id="TN"
     d="m 1104.0542,506.78343 -27.7601,4.65903 -39.5047,5.24141 -3.3001,0.0971 0.9706,3.88252 -19.6068,2.6207 -2.8148,0.38826 v 0.0971 l -0.7765,0.97063 -0.3882,-0.0971 v -0.77651 -0.0971 l -1.0677,0.0971 0.097,0.0971 0.5823,2.71776 -1.9412,2.42658 -0.1941,4.46491 v 0.7765 0.0971 l -2.9119,5.62966 0.5823,3.97959 -2.7177,4.27078 0.9706,3.88252 -3.4943,3.20309 0.1942,0.19412 2.1353,-0.19412 19.4127,-2.42658 8.5415,-1.16476 4.8532,-0.67944 h 0.1941 l -0.097,-0.19413 16.3066,-2.23245 7.7651,-0.97063 15.5301,-2.52364 2.9119,-0.48532 1.7471,-0.19412 8.2504,-1.55301 2.0383,-0.38825 7.5709,-1.45595 1.3589,-0.19413 v -0.97063 l -0.097,-4.27078 3.5913,-1.94126 0.1941,-2.52364 4.0767,-3.78546 3.8825,-0.97063 7.9592,-7.18267 3.009,-4.46491 2.3295,0.87357 5.2414,-5.14434 2.8148,-0.29119 2.5236,-5.14435 1.0677,0.0971 -0.097,-4.17371 0.4854,-1.45595 -1.553,0.29119 -5.5326,1.55301 -6.6003,1.35889 -16.5978,3.39721 -1.7472,0.29118 -0.3882,0.29119 z" />
  <path
     inkscape:connector-curvature="0"
     id="VA"
     data-name="Virginia"
     data-id="VA"
     d="m 1226.5478,477.27625 h 0.2912 l 0.2912,-0.0971 v 0 l -0.1941,-0.48531 -0.3883,0.58238 v 0 z m -3.3001,-10.87107 v 0.48531 l 0.4853,-0.29119 z m 1.7471,-3.39721 -0.097,-0.77651 v 0 z m -0.5824,1.16475 -0.1941,1.26183 -0.2912,0.48531 z m 0.8736,-2.52364 0.097,-0.58238 -0.1941,0.58238 h 0.097 z m 0.5824,-2.6207 0.2912,-0.67944 -0.4854,1.74713 z m 0.097,-1.45595 0.3882,-2.13539 -0.4853,0.48532 0.097,1.65007 z m 1.7471,-9.60925 0.1941,-0.87356 -0.097,0.19412 -0.097,0.67944 z m -0.3883,-2.23245 -1.2618,0.48532 -1.9412,0.87357 -0.6795,0.87356 0.2912,0.0971 -2.3295,14.4624 0.8736,2.32952 1.3588,-6.01792 2.5237,-7.86211 1.1647,-5.14435 v -0.0971 z m 1.9413,-0.7765 -0.2912,0.0971 -0.097,0.38825 -0.4853,3.00896 0.3883,-1.0677 0.4853,-2.42657 z m -101.431,37.17517 -0.6794,0.97063 -4.659,5.92085 -3.6884,2.9119 -0.7765,2.52364 -5.6297,7.3768 -7.2797,3.88252 -0.6795,0.7765 1.7472,-0.29118 16.5978,-3.39721 6.6003,-1.35889 5.5326,-1.55301 1.553,-0.29119 0.097,0.19413 25.0423,-4.65903 24.751,-6.3091 38.8253,-11.0652 v 0 l -0.2912,-0.48531 -0.097,-0.29119 0.6794,0.67944 v 0 0 l 0.7766,-0.19413 -0.097,-0.0971 -0.6795,-3.30015 0.4853,0.0971 1.553,2.91189 v 0 0 l 0.2912,-0.0971 0.1942,-0.0971 -0.3883,-0.7765 -3.9796,-6.11498 -4.9502,0.87357 -2.2325,1.8442 -2.1353,-1.94126 -7.2798,-2.42658 -5.0473,-0.19413 9.8034,-0.87357 5.4356,3.6884 1.553,-2.42658 -4.3679,-5.53259 3.106,0.19412 -1.65,-4.4649 -3.8826,0.19413 -9.221,-7.47386 h -1.1647 l 13.0064,6.40616 -0.8735,-4.4649 0.8735,-1.45595 -6.6002,-2.52364 -5.7268,-0.38825 -2.8148,-2.52364 -2.3295,1.45594 -0.8736,-6.69735 0.9706,0.19412 -0.1941,-5.43553 -0.1941,-0.19413 -0.1941,0.0971 -0.1942,-0.0971 -0.4853,-0.38825 -0.2912,-0.29119 -3.106,-1.35888 -3.2031,-2.32952 -4.4649,-1.16475 -0.2912,-0.0971 v 0.0971 l -0.5823,4.07665 -9.0269,-3.88253 0.1941,5.62966 -4.9502,9.41513 -3.009,3.30014 -1.9412,5.72673 -5.9209,-2.03833 -2.9119,13.20058 -2.3295,4.46491 -0.3882,5.82379 -1.7472,2.81483 -6.5032,1.94126 -5.3385,4.17371 -2.5236,0.38825 -2.4266,2.13539 -6.115,-2.23245 -1.0677,-3.00896 -0.1941,-0.0971 z" />
  <path
     inkscape:connector-curvature="0"
     id="WI"
     data-name="Wisconsin"
     data-id="WI"
     d="m 1023.5888,341.09669 -2.4266,3.00896 -1.4559,4.36784 0.6794,2.42657 z m -55.71421,-22.80983 1.45595,-2.03833 -1.0677,0.97063 z m 2.23245,-3.20309 -0.48531,-0.58238 -1.0677,0.67945 1.55301,-0.0971 z m -21.15976,5.43554 -2.23245,2.52364 1.0677,11.64757 -6.21204,5.62966 -1.16476,5.43554 3.39721,3.10602 -0.97063,13.39471 3.59133,2.71777 2.32952,0.19412 7.37679,4.46491 4.65903,4.85315 5.92085,3.00896 1.35889,7.47386 v 0.48531 0 l 2.81483,3.39721 -0.77651,2.62071 0.97063,5.72672 2.9119,3.97959 5.33847,2.81483 -0.0971,0.48532 v 0 l 21.15976,-2.42658 7.8621,-0.97063 13.1035,-1.8442 -0.3882,-1.45595 v -4.56197 l -2.6207,-4.85315 -0.6795,-6.11498 1.2619,-6.79442 -0.6795,-5.24141 2.3295,-6.50322 -0.8735,-1.0677 0.1941,-6.01791 1.2618,-4.56197 -1.4559,-1.55301 -2.8149,0.97063 -1.553,4.07665 -3.6884,2.13539 1.1648,-5.14434 3.3001,-4.36784 0.1942,-1.94127 0.097,-0.0971 -4.6591,-4.65903 v -6.60029 l -5.2414,-4.27078 -7.18266,-0.48531 -7.3768,-1.94127 -15.91835,-4.85315 -3.10602,-1.74714 -0.29119,0.29119 -4.95022,-0.67944 -1.65007,0.97063 0.67944,-7.08561 -7.95917,4.07665 -9.70631,1.55301 -0.0971,-0.19412 z m 19.02437,-5.14435 -0.19412,-0.67944 -0.67944,0.29119 z m -3.49427,-0.67944 0.29119,-0.58238 -0.19413,-0.19413 -0.0971,0.77651 z m 7.08561,-1.65007 -0.29119,-1.35889 -0.29119,1.65008 z" />
  <path
     inkscape:connector-curvature="0"
     id="WV"
     data-name="West Virginia"
     data-id="WV"
     d="m 1154.527,430.00651 -13.783,3.39721 -4.2708,-18.442 v 0 l -0.1941,0.0971 -0.4853,21.25682 -3.106,4.65903 -3.5914,2.71777 -0.6794,-0.77651 -3.9796,5.43554 0.2912,4.27077 -2.4266,0.38826 -3.3001,5.04728 1.1647,3.30014 -1.4559,3.20309 -4.1737,2.03832 v 0 0.19413 l 1.9412,6.79442 5.5326,6.69735 3.1061,1.74714 h 2.4265 l 0.2912,0.0971 0.1941,0.0971 1.0677,3.00896 6.115,2.23245 2.4266,-2.13539 2.5236,-0.38825 5.3385,-4.17371 6.5032,-1.94126 1.7472,-2.81483 0.3882,-5.82379 2.3295,-4.46491 2.9119,-13.20058 5.9209,2.03833 1.9412,-5.72673 3.009,-3.30014 4.9502,-9.41513 -0.1941,-5.62966 9.0269,3.88253 0.5823,-4.07665 v -0.0971 0 l -2.8148,-4.85315 -5.8238,-0.67945 -3.3972,2.62071 v 1.94126 l -2.9119,0.67944 -4.2708,3.00896 -2.2324,0.48532 -4.4649,6.3091 -2.2325,-10.19163 -1.9412,0.48532 z" />
  <path
     inkscape:connector-curvature="0"
     id="DE"
     data-name="Delaware"
     data-id="DE"
     d="m 1211.6001,413.99109 0.3882,1.45595 8.0563,23.00396 9.221,-2.71777 -0.097,-0.19413 h 0.1941 l 0.2912,0.0971 v 0 l 0.1941,-0.0971 -0.1941,-0.38825 -2.3295,-6.21204 -11.3564,-10.774 0.4853,-7.47386 v 0 h -2.3295 l -1.7471,1.35888 -0.7765,1.94126 v 0 z" />
  <path
     inkscape:connector-curvature="0"
     id="DC"
     data-name="District of Columbia"
     data-id="DC"
     d="m 1195.9729,435.44204 0.4853,0.38825 0.1942,0.0971 0.1941,-0.0971 0.1941,0.0971 0.6795,0.38825 0.1941,0.29119 v 0.67944 l 0.1941,0.38825 1.2618,-2.32951 -1.3588,-0.77651 -1.6501,0.0971 -0.3883,0.7765 z" />
  <path
     inkscape:connector-curvature="0"
     id="MD"
     data-name="Maryland"
     data-id="MD"
     d="m 1229.3626,444.56597 0.6795,-5.2414 -0.5824,3.88252 -0.3882,1.65007 -0.097,0.19413 0.2911,-0.0971 0.097,-0.38826 z m 0.4854,-9.02687 -0.1942,0.0971 0.1942,0.58238 v 1.16475 -1.8442 0 z m -73.3798,-6.01791 2.2325,10.19163 4.4649,-6.3091 2.2324,-0.48532 4.2708,-3.00896 2.9119,-0.67944 v -1.94126 l 3.3972,-2.62071 5.8238,0.67945 2.8148,4.85315 v 0 l 0.2912,0.0971 4.4649,1.16475 3.2031,2.32952 3.106,1.35888 0.2912,0.29119 0.3883,-0.7765 1.6501,-0.0971 1.3588,0.77651 -1.2618,2.32951 v 0.0971 l -1.8442,5.62966 6.0179,3.88252 6.0179,0.29119 3.9796,1.8442 -1.65,-4.65903 -5.1444,-1.74714 -1.2618,-3.97958 3.2031,4.27077 2.6207,0.38826 -2.3295,-2.32952 -1.8442,-6.89148 0.4853,-3.97959 -2.0383,-4.36784 2.1353,-1.74713 1.5531,-5.62967 -0.5824,8.34743 1.65,2.81483 1.5531,-3.30014 0.8735,5.43553 -1.65,3.97959 4.756,1.74714 -4.0766,1.35888 2.1354,3.97959 3.4943,1.16475 1.9412,-3.3972 -0.1941,4.75609 3.3001,-0.0971 2.1354,2.42657 h 0.097 l 0.6795,-0.87356 1.9412,-0.87357 1.2618,-0.48532 -0.097,-0.19412 2.5237,-7.47386 v -0.29119 l -0.4853,-1.94127 v -0.0971 l -9.221,2.71777 -8.0563,-23.00396 -0.3882,-1.45595 -1.6501,0.48532 -6.8915,2.13539 -37.9517,10.57988 -6.8914,1.8442 -1.7472,0.48531 z" />
  <path
     inkscape:connector-curvature="0"
     id="NJ"
     data-name="New Jersey"
     data-id="NJ"
     d="m 1234.604,413.60284 -0.4853,-1.16476 v 1.16476 z m 0.9707,-3.59134 0.2912,-2.91189 -0.5824,2.52364 z m -3.9796,-29.79837 -10.1916,-2.52365 -1.7472,-0.48531 -1.65,-0.38825 v 0 l -4.0767,9.02687 1.7471,2.13539 -0.097,6.50322 1.8442,0.29119 3.7855,9.90044 -0.1941,0.29119 -4.7561,6.98855 0.4853,5.33847 11.4535,3.88252 0.097,4.46491 2.6207,-3.6884 0.3882,-5.33847 2.7178,-1.8442 -1.0677,-3.97959 2.0383,-4.75609 v -10.38576 l -0.6794,-3.39721 -4.562,0.0971 1.1648,-4.65903 0.6794,-7.47386 v 0 z" />
  <path
     inkscape:connector-curvature="0"
     id="NY"
     data-name="New York"
     data-id="NY"
     d="m 1231.3039,388.07524 -1.4559,2.03832 -0.3883,0.58238 z m 13.3947,-4.75609 4.8532,-4.27078 v -0.19413 z m -12.7153,3.00895 v -3.30014 l -0.2911,1.74713 z m 22.5187,-15.5301 -1.1648,-0.29119 -0.1941,0.87357 z m 2.6207,-1.74713 -0.097,0.97063 0.1941,-0.58238 -0.097,-0.38825 z m -2.7178,0.0971 -6.5032,6.01791 -9.9975,4.27078 -2.6207,2.23245 -0.1941,2.13539 -2.7178,2.23245 0.3883,2.9119 4.1737,-1.65008 6.1149,-4.95022 6.7945,-3.59133 10.2887,-9.70631 -7.2798,5.53259 -2.3295,0.97064 z m 3.009,-4.07665 0.3882,-0.58238 -1.1647,1.35888 z m -109.099,-3.59134 -1.553,-0.19412 1.1648,1.55301 z m 32.225,-29.70131 0.1941,-1.0677 -0.7765,0.97064 0.5824,0.0971 z m 0.4853,-6.98855 -0.3882,0.19413 -0.4854,1.06769 z m -41.0577,55.13186 0.6794,2.91189 5.1444,1.26182 29.5072,-8.05624 29.7013,-8.92981 5.4355,4.17372 1.0677,2.42658 6.3091,2.71776 0.1942,0.38826 1.65,0.38825 1.7472,0.48531 10.1916,2.52365 -0.1941,-0.48532 0.8735,3.97959 1.9413,-0.48532 1.0677,-4.36784 v -0.0971 l -1.7471,-1.65007 2.5236,-3.10602 -1.1648,-1.45595 -3.6884,-14.26828 -0.1941,-0.97063 -0.4853,-0.29119 -0.2912,-4.27078 -0.2912,-4.65903 -0.2912,-5.04728 v -0.29119 l -0.1941,0.0971 -4.8532,-15.91835 -5.1443,-8.05624 -1.4559,-9.60924 -4.3679,-10.19163 -0.5824,0.29119 -20.2862,6.79442 -4.0766,4.36784 -4.562,8.73568 0.1942,1.94126 -6.018,9.12393 3.6884,1.26182 1.0677,6.89148 -4.2707,5.62967 -12.8124,7.76504 -2.4266,-0.97063 -9.5121,1.35889 -8.8328,5.33847 0.4853,2.81483 3.1061,2.71777 -1.7472,8.54155 -6.9885,8.1533 -0.097,0.0971 z" />
  <path
     inkscape:connector-curvature="0"
     id="PA"
     data-name="Pennsylvania"
     data-id="PA"
     d="m 1217.8121,376.42766 -6.3091,-2.71776 -1.0677,-2.42658 -5.4355,-4.17372 -29.7013,8.92981 -29.5072,8.05624 -5.1444,-1.26182 -0.6794,-2.91189 -1.6501,1.26182 -2.6207,1.8442 -4.7561,4.85315 -0.5823,0.48532 2.7177,11.93876 0.4853,2.13539 2.4266,10.48282 0.4853,2.03832 v 0 l 4.2708,18.442 13.783,-3.39721 1.9412,-0.48532 1.7472,-0.48531 6.8915,-1.8442 37.9516,-10.57988 6.8915,-2.13539 1.6501,-0.48532 v 0 l 0.7765,-1.94126 1.7471,-1.35888 h 2.3295 l 0.2912,-0.87357 3.7855,-4.27078 0.3882,-0.67944 0.2912,-0.19413 -3.7854,-9.90044 -1.8442,-0.29119 0.097,-6.50322 -1.7472,-2.13539 4.0767,-9.02687 v 0 z" />
  <path
     inkscape:connector-curvature="0"
     id="ME"
     data-name="Maine"
     data-id="ME"
     d="m 1264.5966,324.69302 h -0.097 l 0.1941,0.0971 -0.097,-0.0971 z m 7.1826,-20.67444 -0.7765,-1.16476 v 0.58238 z m -1.3589,-1.0677 v -0.97063 l -0.097,-0.58238 z m 3.4943,-4.07665 -0.1941,-0.0971 0.097,0.29119 0.097,-0.19412 z m 9.7063,-4.85315 -0.1941,-1.45595 -0.3883,0.67944 z m -2.4266,0.58238 0.097,-1.0677 -1.1647,0.19413 z m 3.5914,-3.20309 h -0.3883 v 0.19413 z m -4.8532,1.45595 -0.8735,-0.19413 -0.097,0.87357 0.9706,-0.67944 z m 4.9502,-3.00896 0.8736,0.67945 -0.2912,-0.77651 -0.5824,0.0971 z m -2.6207,0.0971 -0.8735,1.65008 1.1647,-0.58238 z m -4.1737,0.0971 -0.3882,0.58238 0.2912,0.87357 z m 5.7268,-3.20308 -0.097,-0.7765 -0.2912,0.48531 z m -0.4854,0.38825 -0.8735,-0.7765 v 0.67944 l 0.8735,0.0971 z m -5.4355,2.23246 -0.1941,-1.0677 -0.3883,0.87357 z m 9.221,-3.39721 -1.4559,2.13538 -0.097,-1.55301 1.553,-0.58237 z m 7.0856,-6.50323 -0.6794,-0.97063 -0.3883,0.19412 z m 2.6207,-4.36784 -0.5824,-0.29119 -0.097,0.29119 h 0.6795 z m 1.2618,-7.57093 h -0.8735 l 0.9706,0.29119 -0.097,-0.29119 z m 1.456,0.97063 -0.2912,-1.74713 -0.7765,-0.0971 1.0677,1.8442 z m -1.553,-1.55301 -0.1942,-1.84419 -0.6794,1.26182 z m -56.2966,15.23891 14.0741,33.00146 0.1941,0.67944 6.115,7.47386 v -0.0971 l 0.9706,-0.29119 0.1942,-5.5326 1.553,-1.94126 0.9706,-5.14435 -0.8736,-0.87357 1.6501,-5.04727 5.6297,-2.62071 3.6884,-4.4649 1.3589,-7.76505 5.9208,-0.38825 -0.7765,-3.97959 7.3768,-2.81483 0.4853,-4.36784 1.7472,0.38825 4.8531,-3.97959 2.1354,-5.14434 -4.9502,-4.95022 -5.2414,-1.06769 -1.9413,-3.97959 v -2.32952 l -3.2031,0.97063 -3.5913,-1.26182 v -3.97958 l -9.7063,-20.96564 -7.0856,-3.6884 -7.8621,6.6003 -2.1354,-0.38826 -1.8442,-3.39721 -2.5237,0.97063 -3.5913,17.85962 1.2618,5.82379 1.0677,11.8417 -2.8148,9.12393 1.9412,1.45595 -2.3295,4.4649 -2.5236,-0.38825 -0.1941,0.19412 z" />
  <path
     inkscape:connector-curvature="0"
     id="MI"
     data-name="Michigan"
     data-id="MI"
     d="m 1037.76,344.4939 -0.4853,-0.77651 -0.097,0.97063 0.5824,-0.19412 z m 1.5531,-1.74714 -1.1648,-1.55301 -0.1941,0.67944 z m 0.9706,-6.98854 -0.9706,-0.87357 v 0.19412 z m -2.4266,76.00042 12.0358,-1.94126 3.3972,-0.67944 14.8507,-2.62071 0.2912,1.26182 0.9706,-0.29119 6.4062,-1.35888 6.115,-1.45595 6.212,-1.55301 -0.097,-0.29119 3.2031,-6.3091 -0.2912,-5.24141 3.5913,-9.02687 2.8149,1.65007 1.0677,-2.03832 -0.2912,-7.76505 -2.6207,-4.85316 -3.8826,-10.28869 -3.3972,-3.78546 -1.7471,-0.48531 -6.3091,4.36784 0.6794,0.87356 -3.3001,6.21204 -3.2031,-0.58238 -0.9706,-6.50322 1.3589,-0.48532 2.8148,-6.50323 0.2912,-11.45345 -4.3679,-9.70631 -9.7063,-1.65007 -0.9706,-1.45595 -9.0269,-2.6207 -4.0766,5.04728 0.3882,4.36784 -3.106,3.88252 0.6795,6.01792 -3.009,2.13539 v -7.57093 l -2.7178,5.72673 -3.2031,5.04728 -2.1353,1.65007 1.0676,5.33847 -1.3588,5.5326 0.7765,6.89148 -0.9707,3.39721 6.9886,13.39471 0.8736,5.14435 -0.8736,9.51218 -4.659,10.67695 -0.5824,0.38825 z m 20.7715,-87.45387 -2.5236,0.19412 1.553,1.16476 z m -14.7536,2.52364 h -0.7765 l 0.8736,0.38825 -0.097,-0.38825 z m 16.9861,-12.32702 -0.9707,-1.55301 -0.3882,0.0971 1.3589,1.45594 z m -87.93923,7.08561 3.10602,1.74714 15.91835,4.85315 7.3768,1.94127 7.18266,0.48531 5.2414,4.27078 v 6.60029 l 4.6591,4.65903 v -0.0971 l 3.7854,-10.96814 4.562,-3.20308 3.4943,-3.88252 0.5823,3.49427 3.5914,-5.5326 8.6386,-3.30014 0.6794,-1.35889 8.7357,1.0677 3.3972,1.74713 1.6501,-4.27077 1.553,0.97063 6.7944,-1.0677 -1.6501,-2.71777 -3.0089,-1.74713 0.5824,-6.3091 -5.9209,3.30014 -5.4355,-0.67944 -1.7472,-4.17371 0.5824,-1.35889 -7.3768,3.49427 -4.7561,0.29119 -8.5415,5.24141 -0.9706,1.94126 -5.2415,-1.26182 -3.3001,1.45595 -6.6003,-5.72672 -14.65653,-4.46491 -0.29119,-1.74713 -9.41512,9.02687 -5.33847,1.35888 -7.57093,5.72673 -0.29119,0.19412 z m 34.36033,-22.03332 -11.35637,5.62966 3.78546,3.68839 1.45591,-3.68839 3.8826,-4.7561 z m -12.71525,-13.29765 -7.76505,5.33847 -0.38825,2.6207 6.11497,-4.4649 z" />
  <path
     inkscape:connector-curvature="0"
     id="AK"
     data-name="Alaska"
     data-id="AK"
     d="m 419.07971,749.24711 -0.48532,0.19412 0.38826,0.0971 0.0971,-0.29119 z m 3.59134,0.58238 v 0 0.0971 z m -1.74714,-1.65008 v 0.29119 l 0.19413,-0.0971 -0.19413,-0.19413 z m -0.87357,-0.48531 v -0.0971 0 z m 1.8442,0.97063 v -0.19413 l -0.0971,0.0971 0.0971,0.0971 z m -0.19413,-0.19413 v -0.0971 h -0.19412 z m -75.70923,-63.77047 -0.0971,0.67945 0.19413,1.94126 -0.0971,-2.62071 z m -0.48531,-2.6207 0.0971,0.87357 0.0971,-0.29119 -0.19413,-0.58238 z m 76.19454,65.22642 0.0971,-0.58238 -0.38825,0.19412 0.29118,0.38826 z m 11.0652,4.75609 -0.0971,-0.0971 0.19412,0.38825 -0.0971,-0.29119 z m -7.18267,-3.39721 -1.06769,-0.97063 v 2.32951 z m 2.42658,2.13539 -0.0971,-0.67944 -1.65007,-0.0971 1.74714,0.77651 z m 5.82378,1.35888 -0.0971,0.19413 h 0.19413 l -0.0971,-0.19413 z m 0.38826,0.0971 h -0.19413 l 0.38825,0.0971 z m 1.16475,0.38826 h -0.0971 -0.0971 0.19412 z m -85.70673,-65.8088 0.38825,0.0971 0.29119,-0.0971 z m 83.57135,64.44991 -0.77651,-0.0971 0.29119,0.29119 0.48532,-0.19413 z m -88.81276,-72.02083 -1.35888,-0.58238 -0.0971,0.29119 1.45595,0.29119 z m 91.23933,72.21496 -0.19412,-0.0971 v 0.0971 z m 5.92085,1.16476 -3.78546,0.29119 -0.87357,0.38825 z M 337.54669,664.02573 H 336.479 l 0.19412,0.29119 z m 115.7963,93.08353 v -0.38825 h -0.19412 z m 5.04728,0.0971 0.19413,-0.19412 -0.19413,-0.19413 z m 3.78547,1.0677 0.19412,-0.0971 h -0.0971 l -0.0971,0.0971 z m -3.10602,-1.74714 -0.0971,-0.38825 h -0.19412 l 0.29119,0.38825 z m 6.50322,1.45595 -0.0971,0.0971 h 0.0971 z m -127.44387,-98.90732 -1.45595,0.19413 1.8442,1.65007 z m 122.29953,97.45137 0.19413,-0.58238 h -0.0971 l -0.0971,0.58238 z m 16.40367,-1.45594 0.0971,-0.19413 -0.19413,-0.0971 0.0971,0.29119 z m -2.42658,-0.87357 -3.39721,3.00895 2.42658,-0.19412 2.81483,-2.23245 z m 6.11498,1.06769 -0.67945,-0.19412 0.48532,0.38825 z m 1.35888,0.0971 -1.0677,-0.29118 -0.19412,0.0971 1.26182,0.19412 z m -3.6884,-1.35888 h -1.06769 l 1.8442,0.48532 z m 4.4649,0.97063 -0.0971,-0.19412 -0.38825,0.0971 0.48531,0.0971 z m -2.91189,-1.16476 -0.38825,-0.19412 v 1.06769 z m 12.42408,2.42658 -0.0971,-0.0971 h -0.19413 l 0.29119,0.0971 z m 0.19413,-0.0971 v -0.0971 l -0.19413,-0.0971 0.19413,0.19413 z m -1.65008,-0.58238 0.19413,0.38825 v -0.0971 l -0.19413,-0.29119 z m 0.87357,0 -0.87357,-0.29119 1.0677,0.77651 z m 1.26182,-0.97063 v 0 0.0971 z m 11.55051,1.45595 -0.19412,-0.38826 h -0.0971 l 0.29119,0.38826 z m 104.43992,-6.50323 -0.19413,-0.19413 0.0971,0.19413 h 0.0971 z m -117.6405,3.00895 v -0.0971 l -0.0971,0.0971 z m 120.45533,-4.75609 0.29119,0.38825 h 0.19413 z m -106.08999,7.27974 -0.0971,0.0971 v 0.29119 l 0.0971,-0.38825 z m -12.03583,-1.74714 0.19413,-0.77651 h -0.0971 l -0.0971,0.77651 z m 123.75548,-7.76505 -0.87357,0.48532 0.77651,0.38825 0.0971,-0.87357 z m -122.00834,7.27973 -0.0971,-0.19412 z m -7.27973,-2.13539 -2.42658,0.48532 -2.13539,2.81483 z m 17.37429,3.6884 -0.58237,0.48532 0.58237,-0.0971 v -0.38826 z m 111.91378,-9.31806 -0.19412,-0.38825 -0.0971,0.19413 0.29119,0.19412 z m -121.23184,6.79442 -0.67944,-0.0971 0.67944,0.67944 v -0.58238 z m 114.82568,-5.5326 -0.19413,0.19413 0.19413,0.67944 z m -113.27267,5.43554 -0.29118,0.0971 0.38825,0.29119 -0.0971,-0.38825 z m 7.18268,2.03832 h -0.29119 l -0.19413,-0.19412 z m -7.95918,-2.03832 -0.48532,-0.29119 0.19413,0.29119 z m 6.50323,1.06769 -0.87357,0.29119 -0.58238,1.55301 z m 105.41055,-6.79441 v 0.67944 l 0.38825,-0.48532 z m -116.864,3.68839 0.77651,-0.19412 h -0.0971 l -0.67944,0.19412 z m -0.97063,-0.58238 -0.19413,-0.19412 v 0.0971 l 0.19413,0.0971 z m 117.83463,-3.78546 -0.19413,-0.0971 -0.0971,0.29119 0.29119,-0.19413 z m -106.47825,5.82379 -0.19412,-0.0971 -0.19413,0.29119 0.38825,-0.19413 z m 105.50762,-5.62966 0.0971,-0.48532 -0.19413,-0.0971 0.0971,0.58238 z m -0.77651,-0.48532 -0.29119,0.38826 0.48532,0.0971 -0.19413,-0.48532 z m -100.65445,4.7561 -0.19413,-0.19413 h -0.0971 l 0.29119,0.19413 z m 100.36326,-6.50323 0.77651,0.29119 0.29119,-0.38826 -1.0677,0.0971 z m 1.16476,-0.67944 -0.29119,0.19412 0.48532,0.29119 z m -2.23245,0.58237 -0.19413,-0.38825 -0.19413,0.19413 z m 9.70631,-3.59133 -1.26182,3.59133 1.26182,-0.7765 z m -115.0198,7.47386 h -0.0971 v 0 z m 106.47824,-6.11498 -0.87356,0.87357 0.19412,0.97063 z m -90.36576,7.76505 v -0.38825 l -0.0971,0.19413 z m 89.29807,-8.73568 2.81483,4.27078 6.3091,3.97959 -1.45594,-3.39721 -6.01792,-5.14435 z m -93.18059,7.18267 -0.0971,-0.29119 -0.19412,0.0971 0.29119,0.19412 z m 96.48074,-8.83274 -0.38826,1.45595 0.67945,-0.48532 z m 2.03832,0 -0.0971,0.97063 0.87357,0.29119 -0.77651,-1.26182 z m -95.41305,7.57092 -0.48531,-0.0971 -0.48532,0.19413 0.97063,-0.0971 z m 9.99751,0.77651 -0.38826,0.67944 0.19413,-0.58238 0.19413,-0.0971 z m 1.45594,0.0971 -0.87357,0.0971 0.48532,0.58238 0.38825,-0.67944 z m -58.82025,-12.42408 0.97063,0.48532 -0.19412,-0.19413 z m 38.53406,9.60925 0.0971,-0.0971 z m 0.29119,-0.0971 h 0.0971 v -0.0971 z m 100.36327,-7.47386 0.48531,1.8442 0.97063,-0.58238 z m -97.74257,6.40616 0.0971,-0.0971 v 0 z m 93.56885,-5.62966 0.48532,4.4649 0.97063,-0.97063 z m 0.48532,-1.45595 2.23245,3.10602 -0.29119,-2.03832 z m -6.89148,0.77651 -0.58238,1.8442 0.7765,-1.26182 z m -77.6505,4.75609 -0.0971,-0.0971 z m 9.221,0.19413 -0.19413,-0.29119 0.19413,0.38825 v -0.0971 z m 68.62362,-6.40617 3.88253,6.40617 -0.58238,-4.36784 z m -63.18809,3.39721 -0.29119,0.29119 0.48532,0.19413 z m -1.26182,0.19413 0.0971,-0.29119 h -0.38825 l 0.29119,0.29119 z m -0.97063,0 -2.52364,1.65007 -3.10602,4.07665 1.55301,1.65008 7.18267,-5.33848 z m 61.24683,-6.3091 -0.67944,-0.38826 v 0.58238 z m -61.82921,5.14434 0.0971,0.38825 0.67945,0.38826 -0.77651,-0.77651 z m 63.67341,-6.98854 -1.94126,0.97063 1.84419,0.58238 0.0971,-1.55301 z m -1.26182,0 -0.19413,-0.19413 -0.0971,0.19413 h 0.29119 z m 5.92085,-1.55301 -0.77651,-0.29119 -0.19412,0.58238 z m -4.17372,0.67944 -0.67944,-0.0971 v 0.19413 l 0.67944,-0.0971 z m 2.13539,-0.77651 3.97959,5.82379 -1.06769,-5.33847 z m -64.06166,6.30911 -2.32951,1.74713 1.06769,1.16476 3.10602,-2.32952 z m -26.40117,-3.6884 -0.0971,-0.0971 v 0.0971 z m -1.06769,-0.48532 -0.0971,-0.48531 v 0.19412 z m 29.79838,1.26182 -0.19413,0.0971 v 0.0971 l 0.19413,-0.19413 z m -0.97063,-0.19412 h -0.0971 l -0.19412,0.29119 0.29119,-0.29119 z m 2.32951,-0.77651 -0.29119,-0.19413 v 0.0971 l 0.29119,0.0971 z m 0.77651,-0.0971 -0.29119,-0.19413 v 0.0971 l 0.29119,0.0971 z m -1.26182,-0.29119 h -0.38826 v 0.0971 z m 19.31556,-1.94126 0.0971,-0.29119 -0.19413,0.19412 0.0971,0.0971 z m 5.92085,-3.10602 1.16475,-1.45595 -0.38825,0.29119 z m -11.8417,-0.19413 0.38825,-0.29119 0.0971,-0.38825 -0.48531,0.67944 z m 0,-1.06769 -0.38826,0.29118 0.67945,-0.19412 -0.29119,-0.0971 z m -15.91836,0 -0.0971,-0.38826 h -0.0971 l 0.19412,0.38826 z m 15.5301,-0.0971 -0.38825,0.38825 -0.19412,0.38826 z m 10.67695,-1.16476 h 0.0971 0.0971 -0.19412 z m 0.48531,0 -0.19412,-0.0971 v 0.0971 z m -1.16475,-0.0971 0.0971,0.0971 v -0.0971 z m -7.95918,0.58238 0.38825,-0.38825 -0.48531,0.38825 h 0.0971 z m 5.92085,-1.16476 z m -4.75609,0.29119 -2.32952,3.78546 3.00896,-3.49427 z m -3.00896,0.48532 -0.29119,-0.38825 -0.0971,0.19412 0.38825,0.19413 z m 7.3768,-0.87357 -0.19413,-0.0971 0.0971,0.0971 h 0.0971 z m 2.52364,0.19413 v -0.67945 l -0.19413,0.29119 z m -71.24433,-7.47386 -4.65903,-0.19413 3.20308,3.39721 z m 66.29411,6.89148 0.19413,0.67944 0.48531,-0.77651 -0.67944,0.0971 z m -3.88253,-0.0971 -0.29119,2.13539 0.48532,-1.35888 z m -84.25078,-16.11247 0.0971,-0.38826 v 0 z m 83.28015,14.75359 0.0971,0.29119 0.19412,-0.0971 -0.29119,-0.19413 z m -0.48531,0.38825 -0.19413,-0.58238 -0.29119,0.19413 z m 4.56196,-1.16475 v -0.38826 l -0.29119,0.19413 z m -4.36784,-0.58238 v 0.97063 l 0.29119,-0.67944 z m -7.37679,-1.16476 v -0.29119 0 z m -50.66695,-12.03583 0.19412,-0.58238 -0.0971,0.0971 -0.0971,0.48531 z m 0.29119,-0.97063 -0.0971,-0.0971 -0.0971,0.0971 h 0.19413 z m 4.27077,-2.32951 v -0.0971 0 z m 0,-0.38826 -0.0971,-0.19412 v 0 z m 1.74714,-2.52364 v 0 h -0.0971 z m 0.58238,0.19413 -0.38825,-0.19413 v 0.0971 l 0.38825,0.0971 z m -0.58238,-0.38825 v -0.19413 l -0.19413,0.19413 z m -15.5301,-4.56197 -0.19412,-0.48532 -0.0971,-0.29118 0.29119,0.7765 z m 1.45595,-1.74714 h 0.0971 l 0.0971,0.0971 -0.19412,-0.0971 z m -2.62071,-0.48531 -0.7765,-0.97063 0.58238,0.7765 z m -1.55301,-1.55301 h -0.19412 l 0.29119,0.0971 -0.0971,-0.0971 z m 0.19413,-1.0677 z m -0.19413,-0.0971 v 0 l 0.19413,0.0971 z m 25.72173,7.66799 -1.06769,0.0971 0.58238,0.29119 0.48531,-0.38825 z m -26.78942,-9.41513 -0.77651,2.9119 2.42658,0.38825 3.20309,3.30015 1.94126,-0.87357 z m 16.98605,1.16476 v -0.19412 0.0971 0.0971 z m -4.85316,-10.28869 -0.19413,-0.0971 0.0971,0.0971 h 0.0971 z m 2.81483,0.97063 0.29119,-0.0971 h -0.0971 l -0.19413,0.0971 z m 1.94126,-0.58238 h 0.29119 l 0.87357,-0.38825 z m 3.49428,-1.06769 0.19412,-0.19413 -0.29119,0.19413 h 0.0971 z m 0.48531,-0.0971 0.58238,-0.29119 -0.48532,0.0971 -0.0971,0.19413 z m 1.45595,-0.58238 -0.48532,0.0971 v 0.0971 l 0.48532,-0.19412 z m 0.58238,-0.0971 z m 61.73214,-17.47136 -0.38825,-0.29119 -0.67944,-0.29119 z m -50.86107,-2.13539 0.87356,-1.16475 -0.48531,0.38825 z m 1.16475,-1.35888 0.38826,-0.58238 -0.19413,0.19413 z m 0.58238,-0.7765 0.67944,-0.58238 -0.38825,0.19412 z m 30.57488,0.19412 0.48532,0.48532 h 0.29119 z m -15.62716,-6.40616 -3.97959,3.30014 -2.42657,-0.67944 -5.62966,3.20308 -1.0677,-0.67944 -6.40616,7.18267 -6.50323,1.45595 0.58237,3.49427 2.9119,3.97959 5.43553,5.24141 -0.87356,2.03832 4.07665,1.74714 -2.13539,0.38825 -2.62071,-2.03832 1.35889,3.00895 -1.74714,1.0677 -5.5326,-5.04728 -4.36784,0.7765 -7.47386,2.81483 3.39721,3.78546 -0.48531,2.32952 2.23245,2.71776 7.37679,2.9119 5.33848,-2.71777 0.87356,2.03833 -1.45594,6.11497 h -4.46491 l -5.2414,2.32952 -0.29119,-1.65008 -2.71777,1.0677 -1.26182,2.81483 -4.46491,3.39721 v 4.95022 l 1.74714,0.7765 -1.35888,4.17372 5.82378,5.04728 3.6884,-1.55301 -0.7765,6.21204 1.06769,1.35888 4.46491,0.97063 1.65007,1.8442 3.88252,0.29119 1.8442,1.94127 3.97959,-1.16476 -1.8442,2.52364 -1.45595,5.14434 -11.8417,7.66799 -1.55301,1.55301 -2.23245,-0.87357 -3.59133,0.87357 -5.14435,3.39721 8.05624,-2.32952 1.16476,1.74714 10.38575,-3.39721 0.29119,1.35889 4.07665,-4.07666 8.54156,-5.92085 0.67944,0.38826 7.47386,-5.92085 -1.94126,-2.32952 2.52364,-4.17371 6.60029,-7.86212 5.04728,-0.97063 1.55301,1.0677 -6.11497,1.74713 -1.65008,6.50323 0.19413,3.49428 2.13539,-0.19413 10.28869,-6.21204 0.7765,-2.32952 -0.87356,-3.59133 3.10601,0.7765 2.23246,-1.45594 6.40616,3.88252 -0.48531,1.0677 14.55946,1.8442 3.39721,-1.0677 0.97064,1.45595 12.6182,6.01791 2.13539,-1.26182 0.19413,-7.27973 1.65007,3.30014 8.1533,5.92085 0.67944,2.42658 7.08561,3.97959 1.8442,5.14434 1.74714,-3.97958 3.59133,6.98854 2.42658,-3.97959 -1.94126,-4.95022 -7.47386,-0.7765 -11.45345,-10.96813 -6.21204,-4.56197 -4.75609,4.65903 h -2.81483 l -6.50323,-4.27078 -6.40617,-0.29119 -9.12393,-57.55843 -1.55301,-2.71776 -3.6884,-2.23246 -5.5326,1.0677 -4.27078,-0.87357 -5.43553,-2.13539 -5.72673,0.38825 -1.45594,-2.71776 -4.56197,-0.67945 -0.7765,-1.65007 -2.03833,2.32952 z"
     style="fill-opacity:1" />
  <ellipse
     style="fill-opacity:1;stroke-width:1.50647"
     id="LAS"
     cx="553.8764"
     cy="576.74957"
     rx="6.7467656"
     ry="6.7467632"
     inkscape:label="LA">
    <desc
       id="desc947">Los Angeles</desc>
  </ellipse>
  <ellipse
     style="fill-opacity:1;stroke-width:1.50647"
     id="SF"
     cx="489.65344"
     cy="469.65268"
     rx="6.7467656"
     ry="6.7467632"
     inkscape:label="SF">
    <desc
       id="desc1631">San Francisco</desc>
  </ellipse>
  <ellipse
     style="fill-opacity:1;stroke-width:1.50647"
     id="LV"
     cx="591.02673"
     cy="516.43488"
     rx="6.7467656"
     ry="6.7467632"
     inkscape:label="LV">
    <desc
       id="desc1635">Las Vegas</desc>
  </ellipse>
  <ellipse
     style="fill-opacity:1;stroke-width:1.50647"
     id="DTM"
     cx="1084.5408"
     cy="395.28058"
     rx="6.7467656"
     ry="6.7467632"
     inkscape:label="DTM">
    <desc
       id="desc1719">Detroit</desc>
  </ellipse>
  <ellipse
     style="fill-opacity:1;stroke-width:1.50647"
     id="CHI"
     cx="1020.9481"
     cy="414.07428"
     rx="6.7467656"
     ry="6.7467632"
     inkscape:label="CHI">
    <desc
       id="desc2495">Chicago</desc>
  </ellipse>
  <ellipse
     style="fill-opacity:1;stroke-width:1.50647"
     id="NYC"
     cx="1236.7479"
     cy="384.13547"
     rx="6.7467656"
     ry="6.7467632"
     inkscape:label="NYC">
    <desc
       id="desc2499">New York City</desc>
  </ellipse>
  <ellipse
     style="fill-opacity:1;stroke-width:1.50647"
     id="ATX"
     cx="876.71735"
     cy="655.11444"
     rx="6.7467656"
     ry="6.7467632"
     inkscape:label="ATX">
    <desc
       id="desc1959">Austin</desc>
  </ellipse>
  <ellipse
     style="fill-opacity:1;stroke-width:1.50647"
     id="HTX"
     cx="918.05304"
     cy="663.85571"
     rx="6.7467656"
     ry="6.7467632"
     inkscape:label="HTX">
    <desc
       id="desc1963">Houston</desc>
  </ellipse>
  <ellipse
     style="fill-opacity:1;stroke-width:1.50647"
     id="DTX"
     cx="896.38519"
     cy="608.13019"
     rx="6.7467656"
     ry="6.7467632"
     inkscape:label="DTX">
    <desc
       id="desc2127">Dallas</desc>
  </ellipse>
  <ellipse
     style="fill-opacity:1;stroke-width:1.50647"
     id="MIA"
     cx="1199.9586"
     cy="705.74731"
     rx="6.7467656"
     ry="6.7467632"
     inkscape:label="MIA">
    <desc
       id="desc2213">Miami</desc>
  </ellipse>
  <ellipse
     style="fill-opacity:1;stroke-width:1.50647"
     id="NO"
     cx="1020.5032"
     cy="658.44733"
     rx="6.7467656"
     ry="6.7467632"
     inkscape:label="NO">
    <desc
       id="desc2301">New Orleans</desc>
  </ellipse>
  <ellipse
     style="fill-opacity:1;stroke-width:1.50647"
     id="WDC"
     cx="1201.8252"
     cy="434.67398"
     rx="6.7467656"
     ry="6.7467632"
     inkscape:label="">
    <desc
       id="desc2391">Washington D.C.</desc>
  </ellipse>
  <ellipse
     style="fill-opacity:1;stroke-width:1.50647"
     id="STL"
     cx="1000.2418"
     cy="482.22867"
     rx="6.7467656"
     ry="6.7467632"
     inkscape:label="STL">
    <desc
       id="desc2483">St. Louis</desc>
  </ellipse>
</svg>
